G04 (created by PCBNEW-RS274X (2012-02-05 BZR 3258)-stable) date Пнд 26 Мар 2012 00:08:15*
G01*
G70*
G90*
%MOIN*%
G04 Gerber Fmt 3.4, Leading zero omitted, Abs format*
%FSLAX34Y34*%
G04 APERTURE LIST*
%ADD10C,0.006000*%
%ADD11R,0.098700X0.037700*%
%ADD12R,0.037700X0.098700*%
%ADD13C,0.075000*%
%ADD14R,0.075000X0.055000*%
%ADD15R,0.055000X0.075000*%
%ADD16R,0.075000X0.075000*%
%ADD17C,0.080000*%
%ADD18R,0.080000X0.080000*%
%ADD19R,0.067200X0.067200*%
%ADD20C,0.076000*%
%ADD21R,0.413700X0.086900*%
%ADD22R,0.413700X0.098700*%
%ADD23C,0.055000*%
G04 APERTURE END LIST*
G54D10*
G54D11*
X70204Y-27893D03*
X70204Y-27578D03*
X70204Y-27263D03*
X70204Y-26948D03*
X70204Y-26633D03*
X70204Y-26318D03*
X70204Y-26003D03*
X70204Y-25688D03*
X73970Y-25690D03*
X73970Y-27900D03*
X73970Y-27580D03*
X73970Y-27260D03*
X73970Y-26950D03*
X73970Y-26630D03*
X73970Y-26320D03*
X73970Y-26000D03*
G54D12*
X70988Y-24900D03*
X71302Y-24900D03*
X71618Y-24900D03*
X71932Y-24900D03*
X72248Y-24900D03*
X72562Y-24900D03*
X72878Y-24900D03*
X73192Y-24900D03*
X70990Y-28680D03*
X71300Y-28680D03*
X71620Y-28680D03*
X71930Y-28680D03*
X72240Y-28680D03*
X72560Y-28680D03*
X72880Y-28680D03*
X73200Y-28680D03*
G54D13*
X79450Y-28000D03*
X79450Y-30000D03*
X76450Y-28000D03*
X76450Y-30000D03*
X79450Y-24900D03*
X79450Y-26900D03*
X76450Y-24900D03*
X76450Y-26900D03*
X67200Y-25200D03*
X67200Y-23200D03*
X70200Y-25200D03*
X70200Y-23200D03*
G54D10*
G36*
X69045Y-30686D02*
X69752Y-31393D01*
X68593Y-32552D01*
X67886Y-31845D01*
X69045Y-30686D01*
X69045Y-30686D01*
G37*
G36*
X66840Y-29215D02*
X67547Y-29922D01*
X67122Y-30347D01*
X66415Y-29640D01*
X66840Y-29215D01*
X66840Y-29215D01*
G37*
G36*
X66203Y-29851D02*
X66910Y-30558D01*
X66485Y-30983D01*
X65778Y-30276D01*
X66203Y-29851D01*
X66203Y-29851D01*
G37*
G36*
X67476Y-28578D02*
X68183Y-29285D01*
X67758Y-29710D01*
X67051Y-29003D01*
X67476Y-28578D01*
X67476Y-28578D01*
G37*
G54D14*
X71800Y-23675D03*
X71800Y-22925D03*
X71000Y-23675D03*
X71000Y-22925D03*
G54D15*
X75625Y-25750D03*
X74875Y-25750D03*
X75625Y-25000D03*
X74875Y-25000D03*
X75425Y-22150D03*
X76175Y-22150D03*
X72975Y-22150D03*
X73725Y-22150D03*
X67375Y-27300D03*
X66625Y-27300D03*
X67375Y-26500D03*
X66625Y-26500D03*
G54D10*
G36*
X66606Y-29125D02*
X66075Y-28594D01*
X66464Y-28205D01*
X66995Y-28736D01*
X66606Y-29125D01*
X66606Y-29125D01*
G37*
G36*
X67136Y-28595D02*
X66605Y-28064D01*
X66994Y-27675D01*
X67525Y-28206D01*
X67136Y-28595D01*
X67136Y-28595D01*
G37*
G54D15*
X74865Y-26640D03*
X75615Y-26640D03*
X73495Y-32700D03*
X72745Y-32700D03*
X73515Y-31520D03*
X72765Y-31520D03*
G54D10*
G36*
X69406Y-33025D02*
X68875Y-32494D01*
X69264Y-32105D01*
X69795Y-32636D01*
X69406Y-33025D01*
X69406Y-33025D01*
G37*
G36*
X69936Y-32495D02*
X69405Y-31964D01*
X69794Y-31575D01*
X70325Y-32106D01*
X69936Y-32495D01*
X69936Y-32495D01*
G37*
G36*
X69094Y-28375D02*
X69625Y-28906D01*
X69236Y-29295D01*
X68705Y-28764D01*
X69094Y-28375D01*
X69094Y-28375D01*
G37*
G36*
X68564Y-28905D02*
X69095Y-29436D01*
X68706Y-29825D01*
X68175Y-29294D01*
X68564Y-28905D01*
X68564Y-28905D01*
G37*
G36*
X69594Y-28875D02*
X70125Y-29406D01*
X69736Y-29795D01*
X69205Y-29264D01*
X69594Y-28875D01*
X69594Y-28875D01*
G37*
G36*
X69064Y-29405D02*
X69595Y-29936D01*
X69206Y-30325D01*
X68675Y-29794D01*
X69064Y-29405D01*
X69064Y-29405D01*
G37*
G54D15*
X74375Y-23700D03*
X73625Y-23700D03*
G54D16*
X74440Y-32300D03*
G54D13*
X75440Y-32300D03*
X76440Y-32300D03*
X77440Y-32300D03*
X78440Y-32300D03*
X79440Y-32300D03*
G54D16*
X72950Y-21250D03*
G54D13*
X71950Y-21250D03*
X70950Y-21250D03*
X69950Y-21250D03*
G54D16*
X80620Y-32300D03*
G54D13*
X81620Y-32300D03*
X82620Y-32300D03*
X83620Y-32300D03*
G54D16*
X71900Y-32700D03*
G54D13*
X70900Y-32700D03*
G54D16*
X77480Y-23700D03*
G54D13*
X78480Y-23700D03*
G54D16*
X71900Y-31600D03*
G54D13*
X70900Y-31600D03*
G54D17*
X65600Y-24800D03*
X65600Y-28800D03*
G54D18*
X83580Y-26400D03*
G54D17*
X82580Y-26400D03*
X83580Y-25400D03*
X82580Y-25400D03*
X83580Y-24400D03*
X82580Y-24400D03*
X83580Y-23400D03*
X82580Y-23400D03*
X83580Y-22400D03*
X82580Y-22400D03*
G54D18*
X83640Y-29960D03*
G54D17*
X82640Y-29960D03*
X83640Y-28960D03*
X82640Y-28960D03*
X83640Y-27960D03*
X82640Y-27960D03*
G54D19*
X75137Y-23700D03*
X75963Y-23700D03*
G54D20*
X70407Y-29607D03*
X68993Y-28193D03*
G54D10*
G36*
X62648Y-27807D02*
X62648Y-28793D01*
X58512Y-28793D01*
X58512Y-27807D01*
X62648Y-27807D01*
X62648Y-27807D01*
G37*
G36*
X62648Y-26866D02*
X62648Y-27734D01*
X58512Y-27734D01*
X58512Y-26866D01*
X62648Y-26866D01*
X62648Y-26866D01*
G37*
G54D21*
X60580Y-26500D03*
G54D22*
X60580Y-25500D03*
G54D10*
G36*
X65774Y-29115D02*
X66305Y-29646D01*
X65916Y-30035D01*
X65385Y-29504D01*
X65774Y-29115D01*
X65774Y-29115D01*
G37*
G36*
X65244Y-29645D02*
X65775Y-30176D01*
X65386Y-30565D01*
X64855Y-30034D01*
X65244Y-29645D01*
X65244Y-29645D01*
G37*
G54D15*
X69075Y-27000D03*
X68325Y-27000D03*
G54D16*
X75440Y-27760D03*
G54D13*
X75440Y-28760D03*
X75440Y-29760D03*
G54D16*
X77150Y-21250D03*
G54D13*
X76150Y-21250D03*
X75150Y-21250D03*
X74150Y-21250D03*
G54D10*
G36*
X65456Y-31466D02*
X65986Y-30936D01*
X66516Y-31466D01*
X65986Y-31996D01*
X65456Y-31466D01*
X65456Y-31466D01*
G37*
G54D13*
X66694Y-32174D03*
G54D23*
X80820Y-29380D03*
X80860Y-28660D03*
X74280Y-33080D03*
X69840Y-30500D03*
X67180Y-31160D03*
X69400Y-25660D03*
X74860Y-27800D03*
M02*
