G04 (created by PCBNEW-RS274X (2012-02-05 BZR 3258)-stable) date Пнд 26 Мар 2012 00:08:15*
G01*
G70*
G90*
%MOIN*%
G04 Gerber Fmt 3.4, Leading zero omitted, Abs format*
%FSLAX34Y34*%
G04 APERTURE LIST*
%ADD10C,0.006000*%
%ADD11C,0.075000*%
%ADD12R,0.075000X0.075000*%
%ADD13C,0.080000*%
%ADD14R,0.080000X0.080000*%
%ADD15C,0.076000*%
%ADD16C,0.055000*%
G04 APERTURE END LIST*
G54D10*
G54D11*
X79450Y-28000D03*
X79450Y-30000D03*
X76450Y-28000D03*
X76450Y-30000D03*
X79450Y-24900D03*
X79450Y-26900D03*
X76450Y-24900D03*
X76450Y-26900D03*
X67200Y-25200D03*
X67200Y-23200D03*
X70200Y-25200D03*
X70200Y-23200D03*
G54D12*
X74440Y-32300D03*
G54D11*
X75440Y-32300D03*
X76440Y-32300D03*
X77440Y-32300D03*
X78440Y-32300D03*
X79440Y-32300D03*
G54D12*
X72950Y-21250D03*
G54D11*
X71950Y-21250D03*
X70950Y-21250D03*
X69950Y-21250D03*
G54D12*
X80620Y-32300D03*
G54D11*
X81620Y-32300D03*
X82620Y-32300D03*
X83620Y-32300D03*
G54D12*
X71900Y-32700D03*
G54D11*
X70900Y-32700D03*
G54D12*
X77480Y-23700D03*
G54D11*
X78480Y-23700D03*
G54D12*
X71900Y-31600D03*
G54D11*
X70900Y-31600D03*
G54D13*
X65600Y-24800D03*
X65600Y-28800D03*
G54D14*
X83580Y-26400D03*
G54D13*
X82580Y-26400D03*
X83580Y-25400D03*
X82580Y-25400D03*
X83580Y-24400D03*
X82580Y-24400D03*
X83580Y-23400D03*
X82580Y-23400D03*
X83580Y-22400D03*
X82580Y-22400D03*
G54D14*
X83640Y-29960D03*
G54D13*
X82640Y-29960D03*
X83640Y-28960D03*
X82640Y-28960D03*
X83640Y-27960D03*
X82640Y-27960D03*
G54D15*
X70407Y-29607D03*
X68993Y-28193D03*
G54D12*
X75440Y-27760D03*
G54D11*
X75440Y-28760D03*
X75440Y-29760D03*
G54D12*
X77150Y-21250D03*
G54D11*
X76150Y-21250D03*
X75150Y-21250D03*
X74150Y-21250D03*
G54D10*
G36*
X65456Y-31466D02*
X65986Y-30936D01*
X66516Y-31466D01*
X65986Y-31996D01*
X65456Y-31466D01*
X65456Y-31466D01*
G37*
G54D11*
X66694Y-32174D03*
G54D16*
X80820Y-29380D03*
X80860Y-28660D03*
X74280Y-33080D03*
X69840Y-30500D03*
X67180Y-31160D03*
X69400Y-25660D03*
X74860Y-27800D03*
M02*
