M48
;DRILL file {Pcbnew (2012-02-05 BZR 3258)-stable} date Пнд 26 Мар 2012 00:08:18
;FORMAT={-:-/ absolute / metric / decimal}
FMAT,2
METRIC,TZ
T1C0.635
T2C0.762
T3C0.813
T4C1.016
%
G90
G05
M71
T1
X170.637Y79.146
X176.276Y65.176
X177.394Y77.470
X188.671Y84.023
X190.144Y70.612
X205.283Y74.625
X205.384Y72.796
T2
X175.242Y71.610
X178.834Y75.202
T3
X166.624Y62.992
X166.624Y73.152
X167.604Y79.924
X169.403Y81.722
X170.688Y58.928
X170.688Y64.008
X177.673Y53.975
X178.308Y58.928
X178.308Y64.008
X180.086Y80.264
X180.086Y83.058
X180.213Y53.975
X182.626Y80.264
X182.626Y83.058
X182.753Y53.975
X185.293Y53.975
X188.341Y53.975
X189.078Y82.042
X190.881Y53.975
X191.618Y70.510
X191.618Y73.050
X191.618Y75.590
X191.618Y82.042
X193.421Y53.975
X194.158Y82.042
X194.183Y63.246
X194.183Y68.326
X194.183Y71.120
X194.183Y76.200
X195.961Y53.975
X196.698Y82.042
X196.799Y60.198
X199.238Y82.042
X199.339Y60.198
X201.778Y82.042
X201.803Y63.246
X201.803Y68.326
X201.803Y71.120
X201.803Y76.200
X204.775Y82.042
X207.315Y82.042
X209.855Y82.042
X212.395Y82.042
T4
X209.753Y56.896
X209.753Y59.436
X209.753Y61.976
X209.753Y64.516
X209.753Y67.056
X209.906Y71.018
X209.906Y73.558
X209.906Y76.098
X212.293Y56.896
X212.293Y59.436
X212.293Y61.976
X212.293Y64.516
X212.293Y67.056
X212.446Y71.018
X212.446Y73.558
X212.446Y76.098
T0
M30
