G04 (created by PCBNEW-RS274X (2012-02-05 BZR 3258)-stable) date Пнд 26 Мар 2012 00:08:15*
G01*
G70*
G90*
%MOIN*%
G04 Gerber Fmt 3.4, Leading zero omitted, Abs format*
%FSLAX34Y34*%
G04 APERTURE LIST*
%ADD10C,0.006000*%
%ADD11C,0.055000*%
%ADD12R,0.055000X0.055000*%
%ADD13C,0.060000*%
%ADD14R,0.060000X0.060000*%
%ADD15C,0.056000*%
%ADD16C,0.035000*%
%ADD17C,0.011800*%
%ADD18C,0.019700*%
%ADD19C,0.010000*%
G04 APERTURE END LIST*
G54D10*
G54D11*
X79450Y-28000D03*
X79450Y-30000D03*
X76450Y-28000D03*
X76450Y-30000D03*
X79450Y-24900D03*
X79450Y-26900D03*
X76450Y-24900D03*
X76450Y-26900D03*
X67200Y-25200D03*
X67200Y-23200D03*
X70200Y-25200D03*
X70200Y-23200D03*
G54D12*
X74440Y-32300D03*
G54D11*
X75440Y-32300D03*
X76440Y-32300D03*
X77440Y-32300D03*
X78440Y-32300D03*
X79440Y-32300D03*
G54D12*
X72950Y-21250D03*
G54D11*
X71950Y-21250D03*
X70950Y-21250D03*
X69950Y-21250D03*
G54D12*
X80620Y-32300D03*
G54D11*
X81620Y-32300D03*
X82620Y-32300D03*
X83620Y-32300D03*
G54D12*
X71900Y-32700D03*
G54D11*
X70900Y-32700D03*
G54D12*
X77480Y-23700D03*
G54D11*
X78480Y-23700D03*
G54D12*
X71900Y-31600D03*
G54D11*
X70900Y-31600D03*
G54D13*
X65600Y-24800D03*
X65600Y-28800D03*
G54D14*
X83580Y-26400D03*
G54D13*
X82580Y-26400D03*
X83580Y-25400D03*
X82580Y-25400D03*
X83580Y-24400D03*
X82580Y-24400D03*
X83580Y-23400D03*
X82580Y-23400D03*
X83580Y-22400D03*
X82580Y-22400D03*
G54D14*
X83640Y-29960D03*
G54D13*
X82640Y-29960D03*
X83640Y-28960D03*
X82640Y-28960D03*
X83640Y-27960D03*
X82640Y-27960D03*
G54D15*
X70407Y-29607D03*
X68993Y-28193D03*
G54D12*
X75440Y-27760D03*
G54D11*
X75440Y-28760D03*
X75440Y-29760D03*
G54D12*
X77150Y-21250D03*
G54D11*
X76150Y-21250D03*
X75150Y-21250D03*
X74150Y-21250D03*
G54D10*
G36*
X65597Y-31466D02*
X65986Y-31077D01*
X66375Y-31466D01*
X65986Y-31855D01*
X65597Y-31466D01*
X65597Y-31466D01*
G37*
G54D11*
X66694Y-32174D03*
G54D16*
X80820Y-29380D03*
X80860Y-28660D03*
X74280Y-33080D03*
X69840Y-30500D03*
X67180Y-31160D03*
X69400Y-25660D03*
X74860Y-27800D03*
G54D17*
X80820Y-29380D02*
X80900Y-29460D01*
X84080Y-22400D02*
X84680Y-23000D01*
X84180Y-29960D02*
X83640Y-29960D01*
X83580Y-22400D02*
X84080Y-22400D01*
X83640Y-29960D02*
X83140Y-29460D01*
X84680Y-29460D02*
X84180Y-29960D01*
X80900Y-29460D02*
X83140Y-29460D01*
X84680Y-23000D02*
X84680Y-29460D01*
X83820Y-28960D02*
X84420Y-28360D01*
X84420Y-28360D02*
X84420Y-24240D01*
X80860Y-28660D02*
X81060Y-28460D01*
X83600Y-28960D02*
X83640Y-28960D01*
X83100Y-28460D02*
X83600Y-28960D01*
X84420Y-24240D02*
X83580Y-23400D01*
X83640Y-28960D02*
X83820Y-28960D01*
X81060Y-28460D02*
X83100Y-28460D01*
X73640Y-33080D02*
X74280Y-33080D01*
X73180Y-32620D02*
X73640Y-33080D01*
X79450Y-30000D02*
X79450Y-29790D01*
X72660Y-31040D02*
X73180Y-31560D01*
X73840Y-20500D02*
X74150Y-20810D01*
X70380Y-31040D02*
X72660Y-31040D01*
X78600Y-28940D02*
X78600Y-27750D01*
X78600Y-27750D02*
X79450Y-26900D01*
X79450Y-29790D02*
X78600Y-28940D01*
X73180Y-31560D02*
X73180Y-32620D01*
X76450Y-26900D02*
X79450Y-26900D01*
X69840Y-30500D02*
X70380Y-31040D01*
X69950Y-21250D02*
X69950Y-21050D01*
X70500Y-20500D02*
X73840Y-20500D01*
G54D18*
X67840Y-30500D02*
X69840Y-30500D01*
X67180Y-31160D02*
X67840Y-30500D01*
G54D17*
X79440Y-30010D02*
X79450Y-30000D01*
X69950Y-21050D02*
X70500Y-20500D01*
X68080Y-26360D02*
X68080Y-28740D01*
X70200Y-25200D02*
X69240Y-25200D01*
X74150Y-20810D02*
X74150Y-21250D01*
X68080Y-28740D02*
X69840Y-30500D01*
X69240Y-25200D02*
X68080Y-26360D01*
X79440Y-32300D02*
X79440Y-30010D01*
G54D18*
X82580Y-22400D02*
X82580Y-25400D01*
G54D17*
X69400Y-25660D02*
X69420Y-25680D01*
X69420Y-27280D02*
X74440Y-32300D01*
X69420Y-25680D02*
X69420Y-27280D01*
G54D18*
X80740Y-22300D02*
X81800Y-23360D01*
X73280Y-22300D02*
X80740Y-22300D01*
X81800Y-23360D02*
X81800Y-25620D01*
X81800Y-25620D02*
X82580Y-26400D01*
X74860Y-27800D02*
X72950Y-25890D01*
X72950Y-21250D02*
X72950Y-21970D01*
X72950Y-25890D02*
X72950Y-21250D01*
X69560Y-24220D02*
X70720Y-24220D01*
X72950Y-21990D02*
X72950Y-21250D01*
X65600Y-28800D02*
X65600Y-28180D01*
X65600Y-28180D02*
X69560Y-24220D01*
X70720Y-24220D02*
X72950Y-21990D01*
X72950Y-21970D02*
X73280Y-22300D01*
G54D10*
G36*
X84675Y-32615D02*
X84139Y-33151D01*
X84139Y-32374D01*
X84128Y-32170D01*
X84072Y-32033D01*
X83981Y-32010D01*
X83910Y-32081D01*
X83910Y-31939D01*
X83887Y-31848D01*
X83694Y-31781D01*
X83490Y-31792D01*
X83353Y-31848D01*
X83330Y-31939D01*
X83620Y-32229D01*
X83910Y-31939D01*
X83910Y-32081D01*
X83691Y-32300D01*
X83981Y-32590D01*
X84072Y-32567D01*
X84139Y-32374D01*
X84139Y-33151D01*
X84115Y-33175D01*
X83910Y-33175D01*
X83910Y-32661D01*
X83620Y-32371D01*
X83549Y-32442D01*
X83549Y-32300D01*
X83259Y-32010D01*
X83168Y-32033D01*
X83126Y-32151D01*
X83065Y-32003D01*
X82918Y-31855D01*
X82725Y-31775D01*
X82516Y-31775D01*
X82323Y-31855D01*
X82175Y-32002D01*
X82119Y-32135D01*
X82065Y-32003D01*
X81918Y-31855D01*
X81725Y-31775D01*
X81516Y-31775D01*
X81323Y-31855D01*
X81175Y-32002D01*
X81144Y-32076D01*
X81144Y-31976D01*
X81106Y-31884D01*
X81036Y-31814D01*
X80945Y-31776D01*
X80846Y-31776D01*
X80296Y-31776D01*
X80204Y-31814D01*
X80134Y-31884D01*
X80096Y-31975D01*
X80096Y-32074D01*
X80096Y-32624D01*
X80134Y-32716D01*
X80204Y-32786D01*
X80295Y-32824D01*
X80394Y-32824D01*
X80944Y-32824D01*
X81036Y-32786D01*
X81106Y-32716D01*
X81144Y-32625D01*
X81144Y-32526D01*
X81144Y-32522D01*
X81175Y-32597D01*
X81322Y-32745D01*
X81515Y-32825D01*
X81724Y-32825D01*
X81917Y-32745D01*
X82065Y-32598D01*
X82120Y-32464D01*
X82175Y-32597D01*
X82322Y-32745D01*
X82515Y-32825D01*
X82724Y-32825D01*
X82917Y-32745D01*
X83065Y-32598D01*
X83123Y-32457D01*
X83168Y-32567D01*
X83259Y-32590D01*
X83549Y-32300D01*
X83549Y-32442D01*
X83330Y-32661D01*
X83353Y-32752D01*
X83546Y-32819D01*
X83750Y-32808D01*
X83887Y-32752D01*
X83910Y-32661D01*
X83910Y-33175D01*
X79975Y-33175D01*
X79975Y-28105D01*
X79975Y-27896D01*
X79975Y-25005D01*
X79975Y-24796D01*
X79895Y-24603D01*
X79748Y-24455D01*
X79555Y-24375D01*
X79346Y-24375D01*
X79153Y-24455D01*
X79005Y-24602D01*
X79005Y-23805D01*
X79005Y-23596D01*
X78925Y-23403D01*
X78778Y-23255D01*
X78585Y-23175D01*
X78376Y-23175D01*
X78183Y-23255D01*
X78035Y-23402D01*
X78004Y-23476D01*
X78004Y-23376D01*
X77966Y-23284D01*
X77896Y-23214D01*
X77805Y-23176D01*
X77706Y-23176D01*
X77156Y-23176D01*
X77064Y-23214D01*
X76994Y-23284D01*
X76956Y-23375D01*
X76956Y-23474D01*
X76956Y-24024D01*
X76994Y-24116D01*
X77064Y-24186D01*
X77155Y-24224D01*
X77254Y-24224D01*
X77804Y-24224D01*
X77896Y-24186D01*
X77966Y-24116D01*
X78004Y-24025D01*
X78004Y-23926D01*
X78004Y-23922D01*
X78035Y-23997D01*
X78182Y-24145D01*
X78375Y-24225D01*
X78584Y-24225D01*
X78777Y-24145D01*
X78925Y-23998D01*
X79005Y-23805D01*
X79005Y-24602D01*
X78925Y-24795D01*
X78925Y-25004D01*
X79005Y-25197D01*
X79152Y-25345D01*
X79345Y-25425D01*
X79554Y-25425D01*
X79747Y-25345D01*
X79895Y-25198D01*
X79975Y-25005D01*
X79975Y-27896D01*
X79969Y-27881D01*
X79969Y-26974D01*
X79958Y-26770D01*
X79902Y-26633D01*
X79811Y-26610D01*
X79740Y-26681D01*
X79740Y-26539D01*
X79717Y-26448D01*
X79524Y-26381D01*
X79320Y-26392D01*
X79183Y-26448D01*
X79160Y-26539D01*
X79450Y-26829D01*
X79740Y-26539D01*
X79740Y-26681D01*
X79521Y-26900D01*
X79811Y-27190D01*
X79902Y-27167D01*
X79969Y-26974D01*
X79969Y-27881D01*
X79895Y-27703D01*
X79748Y-27555D01*
X79740Y-27551D01*
X79740Y-27261D01*
X79450Y-26971D01*
X79379Y-27042D01*
X79379Y-26900D01*
X79089Y-26610D01*
X78998Y-26633D01*
X78931Y-26826D01*
X78942Y-27030D01*
X78998Y-27167D01*
X79089Y-27190D01*
X79379Y-26900D01*
X79379Y-27042D01*
X79160Y-27261D01*
X79183Y-27352D01*
X79376Y-27419D01*
X79580Y-27408D01*
X79717Y-27352D01*
X79740Y-27261D01*
X79740Y-27551D01*
X79555Y-27475D01*
X79346Y-27475D01*
X79153Y-27555D01*
X79005Y-27702D01*
X78925Y-27895D01*
X78925Y-28104D01*
X79005Y-28297D01*
X79152Y-28445D01*
X79345Y-28525D01*
X79554Y-28525D01*
X79747Y-28445D01*
X79895Y-28298D01*
X79975Y-28105D01*
X79975Y-33175D01*
X79969Y-33175D01*
X79969Y-30074D01*
X79958Y-29870D01*
X79902Y-29733D01*
X79811Y-29710D01*
X79740Y-29781D01*
X79740Y-29639D01*
X79717Y-29548D01*
X79524Y-29481D01*
X79320Y-29492D01*
X79183Y-29548D01*
X79160Y-29639D01*
X79450Y-29929D01*
X79740Y-29639D01*
X79740Y-29781D01*
X79521Y-30000D01*
X79811Y-30290D01*
X79902Y-30267D01*
X79969Y-30074D01*
X79969Y-33175D01*
X79959Y-33175D01*
X79959Y-32374D01*
X79948Y-32170D01*
X79892Y-32033D01*
X79801Y-32010D01*
X79740Y-32071D01*
X79740Y-30361D01*
X79450Y-30071D01*
X79379Y-30142D01*
X79379Y-30000D01*
X79089Y-29710D01*
X78998Y-29733D01*
X78931Y-29926D01*
X78942Y-30130D01*
X78998Y-30267D01*
X79089Y-30290D01*
X79379Y-30000D01*
X79379Y-30142D01*
X79160Y-30361D01*
X79183Y-30452D01*
X79376Y-30519D01*
X79580Y-30508D01*
X79717Y-30452D01*
X79740Y-30361D01*
X79740Y-32071D01*
X79730Y-32081D01*
X79730Y-31939D01*
X79707Y-31848D01*
X79514Y-31781D01*
X79310Y-31792D01*
X79173Y-31848D01*
X79150Y-31939D01*
X79440Y-32229D01*
X79730Y-31939D01*
X79730Y-32081D01*
X79511Y-32300D01*
X79801Y-32590D01*
X79892Y-32567D01*
X79959Y-32374D01*
X79959Y-33175D01*
X79730Y-33175D01*
X79730Y-32661D01*
X79440Y-32371D01*
X79369Y-32442D01*
X79369Y-32300D01*
X79079Y-32010D01*
X78988Y-32033D01*
X78943Y-32159D01*
X78892Y-32033D01*
X78801Y-32010D01*
X78730Y-32081D01*
X78730Y-31939D01*
X78707Y-31848D01*
X78514Y-31781D01*
X78310Y-31792D01*
X78173Y-31848D01*
X78150Y-31939D01*
X78440Y-32229D01*
X78730Y-31939D01*
X78730Y-32081D01*
X78511Y-32300D01*
X78801Y-32590D01*
X78892Y-32567D01*
X78936Y-32440D01*
X78988Y-32567D01*
X79079Y-32590D01*
X79369Y-32300D01*
X79369Y-32442D01*
X79150Y-32661D01*
X79173Y-32752D01*
X79366Y-32819D01*
X79570Y-32808D01*
X79707Y-32752D01*
X79730Y-32661D01*
X79730Y-33175D01*
X78730Y-33175D01*
X78730Y-32661D01*
X78440Y-32371D01*
X78369Y-32442D01*
X78369Y-32300D01*
X78079Y-32010D01*
X77988Y-32033D01*
X77946Y-32151D01*
X77885Y-32003D01*
X77738Y-31855D01*
X77545Y-31775D01*
X77336Y-31775D01*
X77143Y-31855D01*
X76995Y-32002D01*
X76969Y-32063D01*
X76969Y-30074D01*
X76958Y-29870D01*
X76902Y-29733D01*
X76811Y-29710D01*
X76740Y-29781D01*
X76740Y-29639D01*
X76717Y-29548D01*
X76524Y-29481D01*
X76320Y-29492D01*
X76183Y-29548D01*
X76160Y-29639D01*
X76450Y-29929D01*
X76740Y-29639D01*
X76740Y-29781D01*
X76521Y-30000D01*
X76811Y-30290D01*
X76902Y-30267D01*
X76969Y-30074D01*
X76969Y-32063D01*
X76939Y-32135D01*
X76885Y-32003D01*
X76740Y-31857D01*
X76740Y-30361D01*
X76450Y-30071D01*
X76379Y-30142D01*
X76379Y-30000D01*
X76089Y-29710D01*
X75998Y-29733D01*
X75959Y-29845D01*
X75959Y-29834D01*
X75948Y-29630D01*
X75892Y-29493D01*
X75801Y-29470D01*
X75511Y-29760D01*
X75801Y-30050D01*
X75892Y-30027D01*
X75959Y-29834D01*
X75959Y-29845D01*
X75931Y-29926D01*
X75942Y-30130D01*
X75998Y-30267D01*
X76089Y-30290D01*
X76379Y-30000D01*
X76379Y-30142D01*
X76160Y-30361D01*
X76183Y-30452D01*
X76376Y-30519D01*
X76580Y-30508D01*
X76717Y-30452D01*
X76740Y-30361D01*
X76740Y-31857D01*
X76738Y-31855D01*
X76545Y-31775D01*
X76336Y-31775D01*
X76143Y-31855D01*
X75995Y-32002D01*
X75939Y-32135D01*
X75885Y-32003D01*
X75738Y-31855D01*
X75730Y-31851D01*
X75730Y-30121D01*
X75440Y-29831D01*
X75369Y-29902D01*
X75369Y-29760D01*
X75079Y-29470D01*
X74988Y-29493D01*
X74921Y-29686D01*
X74932Y-29890D01*
X74988Y-30027D01*
X75079Y-30050D01*
X75369Y-29760D01*
X75369Y-29902D01*
X75150Y-30121D01*
X75173Y-30212D01*
X75366Y-30279D01*
X75570Y-30268D01*
X75707Y-30212D01*
X75730Y-30121D01*
X75730Y-31851D01*
X75545Y-31775D01*
X75336Y-31775D01*
X75143Y-31855D01*
X74995Y-32002D01*
X74964Y-32076D01*
X74964Y-31976D01*
X74926Y-31884D01*
X74856Y-31814D01*
X74765Y-31776D01*
X74666Y-31776D01*
X74352Y-31776D01*
X70719Y-28142D01*
X70719Y-25274D01*
X70708Y-25070D01*
X70652Y-24933D01*
X70561Y-24910D01*
X70490Y-24981D01*
X70490Y-24839D01*
X70467Y-24748D01*
X70274Y-24681D01*
X70070Y-24692D01*
X69933Y-24748D01*
X69910Y-24839D01*
X70200Y-25129D01*
X70490Y-24839D01*
X70490Y-24981D01*
X70271Y-25200D01*
X70561Y-25490D01*
X70652Y-25467D01*
X70719Y-25274D01*
X70719Y-28142D01*
X70490Y-27913D01*
X69729Y-27152D01*
X69729Y-25932D01*
X69760Y-25901D01*
X69825Y-25745D01*
X69825Y-25580D01*
X69893Y-25648D01*
X69924Y-25616D01*
X69933Y-25652D01*
X70126Y-25719D01*
X70330Y-25708D01*
X70467Y-25652D01*
X70490Y-25561D01*
X70235Y-25306D01*
X70200Y-25271D01*
X70129Y-25200D01*
X70094Y-25165D01*
X69839Y-24910D01*
X69748Y-24933D01*
X69681Y-25126D01*
X69692Y-25330D01*
X69706Y-25365D01*
X69641Y-25300D01*
X69485Y-25235D01*
X69316Y-25235D01*
X69160Y-25299D01*
X69040Y-25419D01*
X68975Y-25575D01*
X68975Y-25744D01*
X69039Y-25900D01*
X69111Y-25972D01*
X69111Y-27280D01*
X69135Y-27398D01*
X69202Y-27498D01*
X73916Y-32212D01*
X73916Y-32624D01*
X73954Y-32716D01*
X74024Y-32786D01*
X74115Y-32824D01*
X74214Y-32824D01*
X74764Y-32824D01*
X74856Y-32786D01*
X74926Y-32716D01*
X74964Y-32625D01*
X74964Y-32526D01*
X74964Y-32522D01*
X74995Y-32597D01*
X75142Y-32745D01*
X75335Y-32825D01*
X75544Y-32825D01*
X75737Y-32745D01*
X75885Y-32598D01*
X75940Y-32464D01*
X75995Y-32597D01*
X76142Y-32745D01*
X76335Y-32825D01*
X76544Y-32825D01*
X76737Y-32745D01*
X76885Y-32598D01*
X76940Y-32464D01*
X76995Y-32597D01*
X77142Y-32745D01*
X77335Y-32825D01*
X77544Y-32825D01*
X77737Y-32745D01*
X77885Y-32598D01*
X77943Y-32457D01*
X77988Y-32567D01*
X78079Y-32590D01*
X78369Y-32300D01*
X78369Y-32442D01*
X78150Y-32661D01*
X78173Y-32752D01*
X78366Y-32819D01*
X78570Y-32808D01*
X78707Y-32752D01*
X78730Y-32661D01*
X78730Y-33175D01*
X72327Y-33175D01*
X72386Y-33116D01*
X72424Y-33025D01*
X72424Y-32926D01*
X72424Y-32376D01*
X72424Y-31925D01*
X72424Y-31826D01*
X72424Y-31276D01*
X72386Y-31184D01*
X72316Y-31114D01*
X72225Y-31076D01*
X72126Y-31076D01*
X71576Y-31076D01*
X71484Y-31114D01*
X71414Y-31184D01*
X71376Y-31275D01*
X71376Y-31374D01*
X71376Y-31377D01*
X71345Y-31303D01*
X71198Y-31155D01*
X71005Y-31075D01*
X70937Y-31075D01*
X70937Y-29713D01*
X70937Y-29502D01*
X70856Y-29307D01*
X70708Y-29158D01*
X70513Y-29077D01*
X70302Y-29077D01*
X70107Y-29158D01*
X69958Y-29306D01*
X69877Y-29501D01*
X69877Y-29712D01*
X69958Y-29907D01*
X70106Y-30056D01*
X70301Y-30137D01*
X70512Y-30137D01*
X70707Y-30056D01*
X70856Y-29908D01*
X70937Y-29713D01*
X70937Y-31075D01*
X70796Y-31075D01*
X70603Y-31155D01*
X70455Y-31302D01*
X70375Y-31495D01*
X70375Y-31704D01*
X70455Y-31897D01*
X70602Y-32045D01*
X70795Y-32125D01*
X71004Y-32125D01*
X71197Y-32045D01*
X71345Y-31898D01*
X71376Y-31823D01*
X71376Y-31924D01*
X71414Y-32016D01*
X71484Y-32086D01*
X71575Y-32124D01*
X71674Y-32124D01*
X72224Y-32124D01*
X72316Y-32086D01*
X72386Y-32016D01*
X72424Y-31925D01*
X72424Y-32376D01*
X72386Y-32284D01*
X72316Y-32214D01*
X72225Y-32176D01*
X72126Y-32176D01*
X71576Y-32176D01*
X71484Y-32214D01*
X71414Y-32284D01*
X71376Y-32375D01*
X71376Y-32474D01*
X71376Y-32477D01*
X71345Y-32403D01*
X71198Y-32255D01*
X71005Y-32175D01*
X70796Y-32175D01*
X70603Y-32255D01*
X70455Y-32402D01*
X70375Y-32595D01*
X70375Y-32804D01*
X70455Y-32997D01*
X70602Y-33145D01*
X70674Y-33175D01*
X69523Y-33175D01*
X69523Y-28299D01*
X69523Y-28088D01*
X69442Y-27893D01*
X69294Y-27744D01*
X69099Y-27663D01*
X68888Y-27663D01*
X68693Y-27744D01*
X68544Y-27892D01*
X68463Y-28087D01*
X68463Y-28298D01*
X68544Y-28493D01*
X68692Y-28642D01*
X68887Y-28723D01*
X69098Y-28723D01*
X69293Y-28642D01*
X69442Y-28494D01*
X69523Y-28299D01*
X69523Y-33175D01*
X67135Y-33175D01*
X66659Y-32699D01*
X66798Y-32699D01*
X66991Y-32619D01*
X67139Y-32472D01*
X67219Y-32279D01*
X67219Y-32070D01*
X67139Y-31877D01*
X66992Y-31729D01*
X66799Y-31649D01*
X66590Y-31649D01*
X66511Y-31681D01*
X66586Y-31607D01*
X66624Y-31515D01*
X66624Y-31417D01*
X66586Y-31325D01*
X66516Y-31255D01*
X66127Y-30866D01*
X66035Y-30828D01*
X65937Y-30828D01*
X65845Y-30866D01*
X65775Y-30936D01*
X65386Y-31325D01*
X65356Y-31396D01*
X62980Y-29020D01*
X62874Y-28950D01*
X62750Y-28925D01*
X58884Y-28925D01*
X58730Y-28770D01*
X58727Y-28768D01*
X58575Y-28615D01*
X58575Y-24884D01*
X58634Y-24825D01*
X62500Y-24825D01*
X62624Y-24800D01*
X62730Y-24730D01*
X67134Y-20325D01*
X84365Y-20325D01*
X84675Y-20635D01*
X84675Y-22558D01*
X84298Y-22182D01*
X84198Y-22115D01*
X84080Y-22091D01*
X84045Y-22091D01*
X84045Y-22089D01*
X83891Y-21935D01*
X83689Y-21851D01*
X83471Y-21851D01*
X83269Y-21935D01*
X83115Y-22089D01*
X83077Y-22180D01*
X83052Y-22119D01*
X82958Y-22092D01*
X82854Y-22196D01*
X82826Y-22154D01*
X82783Y-22125D01*
X82888Y-22022D01*
X82861Y-21928D01*
X82659Y-21857D01*
X82446Y-21868D01*
X82299Y-21928D01*
X82272Y-22022D01*
X82376Y-22125D01*
X82334Y-22154D01*
X82305Y-22196D01*
X82202Y-22092D01*
X82108Y-22119D01*
X82037Y-22321D01*
X82048Y-22534D01*
X82108Y-22681D01*
X82202Y-22708D01*
X82232Y-22677D01*
X82232Y-22972D01*
X82115Y-23089D01*
X82082Y-23167D01*
X82046Y-23114D01*
X80986Y-22054D01*
X80874Y-21978D01*
X80740Y-21952D01*
X77674Y-21952D01*
X77674Y-21575D01*
X77674Y-21476D01*
X77674Y-20926D01*
X77636Y-20834D01*
X77566Y-20764D01*
X77475Y-20726D01*
X77376Y-20726D01*
X76826Y-20726D01*
X76734Y-20764D01*
X76664Y-20834D01*
X76626Y-20925D01*
X76626Y-21024D01*
X76626Y-21027D01*
X76595Y-20953D01*
X76448Y-20805D01*
X76255Y-20725D01*
X76046Y-20725D01*
X75853Y-20805D01*
X75705Y-20952D01*
X75649Y-21085D01*
X75595Y-20953D01*
X75448Y-20805D01*
X75255Y-20725D01*
X75046Y-20725D01*
X74853Y-20805D01*
X74705Y-20952D01*
X74646Y-21092D01*
X74602Y-20983D01*
X74511Y-20960D01*
X74440Y-21031D01*
X74440Y-20889D01*
X74417Y-20798D01*
X74224Y-20731D01*
X74020Y-20742D01*
X73883Y-20798D01*
X73860Y-20889D01*
X74150Y-21179D01*
X74440Y-20889D01*
X74440Y-21031D01*
X74221Y-21250D01*
X74511Y-21540D01*
X74602Y-21517D01*
X74643Y-21398D01*
X74705Y-21547D01*
X74852Y-21695D01*
X75045Y-21775D01*
X75254Y-21775D01*
X75447Y-21695D01*
X75595Y-21548D01*
X75650Y-21414D01*
X75705Y-21547D01*
X75852Y-21695D01*
X76045Y-21775D01*
X76254Y-21775D01*
X76447Y-21695D01*
X76595Y-21548D01*
X76626Y-21473D01*
X76626Y-21574D01*
X76664Y-21666D01*
X76734Y-21736D01*
X76825Y-21774D01*
X76924Y-21774D01*
X77474Y-21774D01*
X77566Y-21736D01*
X77636Y-21666D01*
X77674Y-21575D01*
X77674Y-21952D01*
X74440Y-21952D01*
X74440Y-21611D01*
X74150Y-21321D01*
X74079Y-21392D01*
X74079Y-21250D01*
X73789Y-20960D01*
X73698Y-20983D01*
X73631Y-21176D01*
X73642Y-21380D01*
X73698Y-21517D01*
X73789Y-21540D01*
X74079Y-21250D01*
X74079Y-21392D01*
X73860Y-21611D01*
X73883Y-21702D01*
X74076Y-21769D01*
X74280Y-21758D01*
X74417Y-21702D01*
X74440Y-21611D01*
X74440Y-21952D01*
X73424Y-21952D01*
X73298Y-21825D01*
X73298Y-21764D01*
X73366Y-21736D01*
X73436Y-21666D01*
X73474Y-21575D01*
X73474Y-21476D01*
X73474Y-20926D01*
X73436Y-20834D01*
X73366Y-20764D01*
X73275Y-20726D01*
X73176Y-20726D01*
X72626Y-20726D01*
X72534Y-20764D01*
X72464Y-20834D01*
X72426Y-20925D01*
X72426Y-21024D01*
X72426Y-21027D01*
X72395Y-20953D01*
X72248Y-20805D01*
X72055Y-20725D01*
X71846Y-20725D01*
X71653Y-20805D01*
X71505Y-20952D01*
X71449Y-21085D01*
X71395Y-20953D01*
X71248Y-20805D01*
X71055Y-20725D01*
X70846Y-20725D01*
X70653Y-20805D01*
X70505Y-20952D01*
X70446Y-21092D01*
X70402Y-20983D01*
X70311Y-20960D01*
X70240Y-21031D01*
X70240Y-20889D01*
X70217Y-20798D01*
X70024Y-20731D01*
X69820Y-20742D01*
X69683Y-20798D01*
X69660Y-20889D01*
X69950Y-21179D01*
X70240Y-20889D01*
X70240Y-21031D01*
X70021Y-21250D01*
X70311Y-21540D01*
X70402Y-21517D01*
X70443Y-21398D01*
X70505Y-21547D01*
X70652Y-21695D01*
X70845Y-21775D01*
X71054Y-21775D01*
X71247Y-21695D01*
X71395Y-21548D01*
X71450Y-21414D01*
X71505Y-21547D01*
X71652Y-21695D01*
X71845Y-21775D01*
X72054Y-21775D01*
X72247Y-21695D01*
X72395Y-21548D01*
X72426Y-21473D01*
X72426Y-21574D01*
X72464Y-21666D01*
X72534Y-21736D01*
X72602Y-21764D01*
X72602Y-21845D01*
X70725Y-23722D01*
X70725Y-23305D01*
X70725Y-23096D01*
X70645Y-22903D01*
X70498Y-22755D01*
X70305Y-22675D01*
X70240Y-22675D01*
X70240Y-21611D01*
X69950Y-21321D01*
X69879Y-21392D01*
X69879Y-21250D01*
X69589Y-20960D01*
X69498Y-20983D01*
X69431Y-21176D01*
X69442Y-21380D01*
X69498Y-21517D01*
X69589Y-21540D01*
X69879Y-21250D01*
X69879Y-21392D01*
X69660Y-21611D01*
X69683Y-21702D01*
X69876Y-21769D01*
X70080Y-21758D01*
X70217Y-21702D01*
X70240Y-21611D01*
X70240Y-22675D01*
X70096Y-22675D01*
X69903Y-22755D01*
X69755Y-22902D01*
X69675Y-23095D01*
X69675Y-23304D01*
X69755Y-23497D01*
X69902Y-23645D01*
X70095Y-23725D01*
X70304Y-23725D01*
X70497Y-23645D01*
X70645Y-23498D01*
X70725Y-23305D01*
X70725Y-23722D01*
X70575Y-23872D01*
X69560Y-23872D01*
X69426Y-23898D01*
X69314Y-23974D01*
X67725Y-25563D01*
X67725Y-23305D01*
X67725Y-23096D01*
X67645Y-22903D01*
X67498Y-22755D01*
X67305Y-22675D01*
X67096Y-22675D01*
X66903Y-22755D01*
X66755Y-22902D01*
X66675Y-23095D01*
X66675Y-23304D01*
X66755Y-23497D01*
X66902Y-23645D01*
X67095Y-23725D01*
X67304Y-23725D01*
X67497Y-23645D01*
X67645Y-23498D01*
X67725Y-23305D01*
X67725Y-25563D01*
X67719Y-25569D01*
X67719Y-25274D01*
X67708Y-25070D01*
X67652Y-24933D01*
X67561Y-24910D01*
X67490Y-24981D01*
X67490Y-24839D01*
X67467Y-24748D01*
X67274Y-24681D01*
X67070Y-24692D01*
X66933Y-24748D01*
X66910Y-24839D01*
X67200Y-25129D01*
X67490Y-24839D01*
X67490Y-24981D01*
X67271Y-25200D01*
X67561Y-25490D01*
X67652Y-25467D01*
X67719Y-25274D01*
X67719Y-25569D01*
X67490Y-25798D01*
X67490Y-25561D01*
X67200Y-25271D01*
X67129Y-25342D01*
X67129Y-25200D01*
X66839Y-24910D01*
X66748Y-24933D01*
X66681Y-25126D01*
X66692Y-25330D01*
X66748Y-25467D01*
X66839Y-25490D01*
X67129Y-25200D01*
X67129Y-25342D01*
X66910Y-25561D01*
X66933Y-25652D01*
X67126Y-25719D01*
X67330Y-25708D01*
X67467Y-25652D01*
X67490Y-25561D01*
X67490Y-25798D01*
X66149Y-27139D01*
X66149Y-24909D01*
X66149Y-24691D01*
X66065Y-24489D01*
X65911Y-24335D01*
X65709Y-24251D01*
X65491Y-24251D01*
X65289Y-24335D01*
X65135Y-24489D01*
X65051Y-24691D01*
X65051Y-24909D01*
X65135Y-25111D01*
X65289Y-25265D01*
X65491Y-25349D01*
X65709Y-25349D01*
X65911Y-25265D01*
X66065Y-25111D01*
X66149Y-24909D01*
X66149Y-27139D01*
X65354Y-27934D01*
X65278Y-28046D01*
X65252Y-28180D01*
X65252Y-28372D01*
X65135Y-28489D01*
X65051Y-28691D01*
X65051Y-28909D01*
X65135Y-29111D01*
X65289Y-29265D01*
X65491Y-29349D01*
X65709Y-29349D01*
X65911Y-29265D01*
X66065Y-29111D01*
X66149Y-28909D01*
X66149Y-28691D01*
X66065Y-28489D01*
X65948Y-28372D01*
X65948Y-28324D01*
X69704Y-24568D01*
X70720Y-24568D01*
X70853Y-24542D01*
X70854Y-24542D01*
X70966Y-24466D01*
X72602Y-22830D01*
X72602Y-25890D01*
X72628Y-26024D01*
X72704Y-26136D01*
X74435Y-27867D01*
X74435Y-27884D01*
X74499Y-28040D01*
X74619Y-28160D01*
X74775Y-28225D01*
X74944Y-28225D01*
X74985Y-28207D01*
X75024Y-28246D01*
X75115Y-28284D01*
X75214Y-28284D01*
X75143Y-28315D01*
X74995Y-28462D01*
X74915Y-28655D01*
X74915Y-28864D01*
X74995Y-29057D01*
X75142Y-29205D01*
X75282Y-29263D01*
X75173Y-29308D01*
X75150Y-29399D01*
X75440Y-29689D01*
X75730Y-29399D01*
X75707Y-29308D01*
X75588Y-29266D01*
X75737Y-29205D01*
X75885Y-29058D01*
X75965Y-28865D01*
X75965Y-28656D01*
X75885Y-28463D01*
X75738Y-28315D01*
X75663Y-28284D01*
X75764Y-28284D01*
X75856Y-28246D01*
X75926Y-28176D01*
X75940Y-28141D01*
X76005Y-28297D01*
X76152Y-28445D01*
X76345Y-28525D01*
X76554Y-28525D01*
X76747Y-28445D01*
X76895Y-28298D01*
X76975Y-28105D01*
X76975Y-27896D01*
X76975Y-25005D01*
X76975Y-24796D01*
X76895Y-24603D01*
X76748Y-24455D01*
X76555Y-24375D01*
X76346Y-24375D01*
X76153Y-24455D01*
X76005Y-24602D01*
X75925Y-24795D01*
X75925Y-25004D01*
X76005Y-25197D01*
X76152Y-25345D01*
X76345Y-25425D01*
X76554Y-25425D01*
X76747Y-25345D01*
X76895Y-25198D01*
X76975Y-25005D01*
X76975Y-27896D01*
X76969Y-27881D01*
X76969Y-26974D01*
X76958Y-26770D01*
X76902Y-26633D01*
X76811Y-26610D01*
X76740Y-26681D01*
X76740Y-26539D01*
X76717Y-26448D01*
X76524Y-26381D01*
X76320Y-26392D01*
X76183Y-26448D01*
X76160Y-26539D01*
X76450Y-26829D01*
X76740Y-26539D01*
X76740Y-26681D01*
X76521Y-26900D01*
X76811Y-27190D01*
X76902Y-27167D01*
X76969Y-26974D01*
X76969Y-27881D01*
X76895Y-27703D01*
X76748Y-27555D01*
X76740Y-27551D01*
X76740Y-27261D01*
X76450Y-26971D01*
X76379Y-27042D01*
X76379Y-26900D01*
X76089Y-26610D01*
X75998Y-26633D01*
X75931Y-26826D01*
X75942Y-27030D01*
X75998Y-27167D01*
X76089Y-27190D01*
X76379Y-26900D01*
X76379Y-27042D01*
X76160Y-27261D01*
X76183Y-27352D01*
X76376Y-27419D01*
X76580Y-27408D01*
X76717Y-27352D01*
X76740Y-27261D01*
X76740Y-27551D01*
X76555Y-27475D01*
X76346Y-27475D01*
X76153Y-27555D01*
X76005Y-27702D01*
X75964Y-27800D01*
X75964Y-27436D01*
X75926Y-27344D01*
X75856Y-27274D01*
X75765Y-27236D01*
X75666Y-27236D01*
X75116Y-27236D01*
X75024Y-27274D01*
X74954Y-27344D01*
X74941Y-27375D01*
X74927Y-27375D01*
X73298Y-25746D01*
X73298Y-22648D01*
X80596Y-22648D01*
X81452Y-23504D01*
X81452Y-25620D01*
X81478Y-25754D01*
X81554Y-25866D01*
X82031Y-26343D01*
X82031Y-26509D01*
X82115Y-26711D01*
X82269Y-26865D01*
X82471Y-26949D01*
X82689Y-26949D01*
X82891Y-26865D01*
X83031Y-26725D01*
X83031Y-26749D01*
X83069Y-26841D01*
X83139Y-26911D01*
X83230Y-26949D01*
X83329Y-26949D01*
X83929Y-26949D01*
X84021Y-26911D01*
X84091Y-26841D01*
X84111Y-26793D01*
X84111Y-27663D01*
X84105Y-27649D01*
X83951Y-27495D01*
X83749Y-27411D01*
X83531Y-27411D01*
X83329Y-27495D01*
X83175Y-27649D01*
X83137Y-27740D01*
X83112Y-27679D01*
X83018Y-27652D01*
X82948Y-27722D01*
X82948Y-27582D01*
X82921Y-27488D01*
X82719Y-27417D01*
X82506Y-27428D01*
X82359Y-27488D01*
X82332Y-27582D01*
X82640Y-27889D01*
X82948Y-27582D01*
X82948Y-27722D01*
X82711Y-27960D01*
X82640Y-28031D01*
X82569Y-27960D01*
X82534Y-27925D01*
X82262Y-27652D01*
X82168Y-27679D01*
X82097Y-27881D01*
X82108Y-28094D01*
X82131Y-28151D01*
X81060Y-28151D01*
X80942Y-28175D01*
X80908Y-28197D01*
X80851Y-28235D01*
X80776Y-28235D01*
X80620Y-28299D01*
X80500Y-28419D01*
X80435Y-28575D01*
X80435Y-28744D01*
X80499Y-28900D01*
X80606Y-29007D01*
X80580Y-29019D01*
X80460Y-29139D01*
X80395Y-29295D01*
X80395Y-29464D01*
X80459Y-29620D01*
X80579Y-29740D01*
X80735Y-29805D01*
X80904Y-29805D01*
X80991Y-29769D01*
X82125Y-29769D01*
X82091Y-29851D01*
X82091Y-30069D01*
X82175Y-30271D01*
X82329Y-30425D01*
X82531Y-30509D01*
X82749Y-30509D01*
X82951Y-30425D01*
X83091Y-30285D01*
X83091Y-30309D01*
X83129Y-30401D01*
X83199Y-30471D01*
X83290Y-30509D01*
X83389Y-30509D01*
X83989Y-30509D01*
X84081Y-30471D01*
X84151Y-30401D01*
X84189Y-30310D01*
X84189Y-30267D01*
X84189Y-30266D01*
X84298Y-30245D01*
X84398Y-30178D01*
X84675Y-29901D01*
X84675Y-32615D01*
X84675Y-32615D01*
G37*
G54D19*
X84675Y-32615D02*
X84139Y-33151D01*
X84139Y-32374D01*
X84128Y-32170D01*
X84072Y-32033D01*
X83981Y-32010D01*
X83910Y-32081D01*
X83910Y-31939D01*
X83887Y-31848D01*
X83694Y-31781D01*
X83490Y-31792D01*
X83353Y-31848D01*
X83330Y-31939D01*
X83620Y-32229D01*
X83910Y-31939D01*
X83910Y-32081D01*
X83691Y-32300D01*
X83981Y-32590D01*
X84072Y-32567D01*
X84139Y-32374D01*
X84139Y-33151D01*
X84115Y-33175D01*
X83910Y-33175D01*
X83910Y-32661D01*
X83620Y-32371D01*
X83549Y-32442D01*
X83549Y-32300D01*
X83259Y-32010D01*
X83168Y-32033D01*
X83126Y-32151D01*
X83065Y-32003D01*
X82918Y-31855D01*
X82725Y-31775D01*
X82516Y-31775D01*
X82323Y-31855D01*
X82175Y-32002D01*
X82119Y-32135D01*
X82065Y-32003D01*
X81918Y-31855D01*
X81725Y-31775D01*
X81516Y-31775D01*
X81323Y-31855D01*
X81175Y-32002D01*
X81144Y-32076D01*
X81144Y-31976D01*
X81106Y-31884D01*
X81036Y-31814D01*
X80945Y-31776D01*
X80846Y-31776D01*
X80296Y-31776D01*
X80204Y-31814D01*
X80134Y-31884D01*
X80096Y-31975D01*
X80096Y-32074D01*
X80096Y-32624D01*
X80134Y-32716D01*
X80204Y-32786D01*
X80295Y-32824D01*
X80394Y-32824D01*
X80944Y-32824D01*
X81036Y-32786D01*
X81106Y-32716D01*
X81144Y-32625D01*
X81144Y-32526D01*
X81144Y-32522D01*
X81175Y-32597D01*
X81322Y-32745D01*
X81515Y-32825D01*
X81724Y-32825D01*
X81917Y-32745D01*
X82065Y-32598D01*
X82120Y-32464D01*
X82175Y-32597D01*
X82322Y-32745D01*
X82515Y-32825D01*
X82724Y-32825D01*
X82917Y-32745D01*
X83065Y-32598D01*
X83123Y-32457D01*
X83168Y-32567D01*
X83259Y-32590D01*
X83549Y-32300D01*
X83549Y-32442D01*
X83330Y-32661D01*
X83353Y-32752D01*
X83546Y-32819D01*
X83750Y-32808D01*
X83887Y-32752D01*
X83910Y-32661D01*
X83910Y-33175D01*
X79975Y-33175D01*
X79975Y-28105D01*
X79975Y-27896D01*
X79975Y-25005D01*
X79975Y-24796D01*
X79895Y-24603D01*
X79748Y-24455D01*
X79555Y-24375D01*
X79346Y-24375D01*
X79153Y-24455D01*
X79005Y-24602D01*
X79005Y-23805D01*
X79005Y-23596D01*
X78925Y-23403D01*
X78778Y-23255D01*
X78585Y-23175D01*
X78376Y-23175D01*
X78183Y-23255D01*
X78035Y-23402D01*
X78004Y-23476D01*
X78004Y-23376D01*
X77966Y-23284D01*
X77896Y-23214D01*
X77805Y-23176D01*
X77706Y-23176D01*
X77156Y-23176D01*
X77064Y-23214D01*
X76994Y-23284D01*
X76956Y-23375D01*
X76956Y-23474D01*
X76956Y-24024D01*
X76994Y-24116D01*
X77064Y-24186D01*
X77155Y-24224D01*
X77254Y-24224D01*
X77804Y-24224D01*
X77896Y-24186D01*
X77966Y-24116D01*
X78004Y-24025D01*
X78004Y-23926D01*
X78004Y-23922D01*
X78035Y-23997D01*
X78182Y-24145D01*
X78375Y-24225D01*
X78584Y-24225D01*
X78777Y-24145D01*
X78925Y-23998D01*
X79005Y-23805D01*
X79005Y-24602D01*
X78925Y-24795D01*
X78925Y-25004D01*
X79005Y-25197D01*
X79152Y-25345D01*
X79345Y-25425D01*
X79554Y-25425D01*
X79747Y-25345D01*
X79895Y-25198D01*
X79975Y-25005D01*
X79975Y-27896D01*
X79969Y-27881D01*
X79969Y-26974D01*
X79958Y-26770D01*
X79902Y-26633D01*
X79811Y-26610D01*
X79740Y-26681D01*
X79740Y-26539D01*
X79717Y-26448D01*
X79524Y-26381D01*
X79320Y-26392D01*
X79183Y-26448D01*
X79160Y-26539D01*
X79450Y-26829D01*
X79740Y-26539D01*
X79740Y-26681D01*
X79521Y-26900D01*
X79811Y-27190D01*
X79902Y-27167D01*
X79969Y-26974D01*
X79969Y-27881D01*
X79895Y-27703D01*
X79748Y-27555D01*
X79740Y-27551D01*
X79740Y-27261D01*
X79450Y-26971D01*
X79379Y-27042D01*
X79379Y-26900D01*
X79089Y-26610D01*
X78998Y-26633D01*
X78931Y-26826D01*
X78942Y-27030D01*
X78998Y-27167D01*
X79089Y-27190D01*
X79379Y-26900D01*
X79379Y-27042D01*
X79160Y-27261D01*
X79183Y-27352D01*
X79376Y-27419D01*
X79580Y-27408D01*
X79717Y-27352D01*
X79740Y-27261D01*
X79740Y-27551D01*
X79555Y-27475D01*
X79346Y-27475D01*
X79153Y-27555D01*
X79005Y-27702D01*
X78925Y-27895D01*
X78925Y-28104D01*
X79005Y-28297D01*
X79152Y-28445D01*
X79345Y-28525D01*
X79554Y-28525D01*
X79747Y-28445D01*
X79895Y-28298D01*
X79975Y-28105D01*
X79975Y-33175D01*
X79969Y-33175D01*
X79969Y-30074D01*
X79958Y-29870D01*
X79902Y-29733D01*
X79811Y-29710D01*
X79740Y-29781D01*
X79740Y-29639D01*
X79717Y-29548D01*
X79524Y-29481D01*
X79320Y-29492D01*
X79183Y-29548D01*
X79160Y-29639D01*
X79450Y-29929D01*
X79740Y-29639D01*
X79740Y-29781D01*
X79521Y-30000D01*
X79811Y-30290D01*
X79902Y-30267D01*
X79969Y-30074D01*
X79969Y-33175D01*
X79959Y-33175D01*
X79959Y-32374D01*
X79948Y-32170D01*
X79892Y-32033D01*
X79801Y-32010D01*
X79740Y-32071D01*
X79740Y-30361D01*
X79450Y-30071D01*
X79379Y-30142D01*
X79379Y-30000D01*
X79089Y-29710D01*
X78998Y-29733D01*
X78931Y-29926D01*
X78942Y-30130D01*
X78998Y-30267D01*
X79089Y-30290D01*
X79379Y-30000D01*
X79379Y-30142D01*
X79160Y-30361D01*
X79183Y-30452D01*
X79376Y-30519D01*
X79580Y-30508D01*
X79717Y-30452D01*
X79740Y-30361D01*
X79740Y-32071D01*
X79730Y-32081D01*
X79730Y-31939D01*
X79707Y-31848D01*
X79514Y-31781D01*
X79310Y-31792D01*
X79173Y-31848D01*
X79150Y-31939D01*
X79440Y-32229D01*
X79730Y-31939D01*
X79730Y-32081D01*
X79511Y-32300D01*
X79801Y-32590D01*
X79892Y-32567D01*
X79959Y-32374D01*
X79959Y-33175D01*
X79730Y-33175D01*
X79730Y-32661D01*
X79440Y-32371D01*
X79369Y-32442D01*
X79369Y-32300D01*
X79079Y-32010D01*
X78988Y-32033D01*
X78943Y-32159D01*
X78892Y-32033D01*
X78801Y-32010D01*
X78730Y-32081D01*
X78730Y-31939D01*
X78707Y-31848D01*
X78514Y-31781D01*
X78310Y-31792D01*
X78173Y-31848D01*
X78150Y-31939D01*
X78440Y-32229D01*
X78730Y-31939D01*
X78730Y-32081D01*
X78511Y-32300D01*
X78801Y-32590D01*
X78892Y-32567D01*
X78936Y-32440D01*
X78988Y-32567D01*
X79079Y-32590D01*
X79369Y-32300D01*
X79369Y-32442D01*
X79150Y-32661D01*
X79173Y-32752D01*
X79366Y-32819D01*
X79570Y-32808D01*
X79707Y-32752D01*
X79730Y-32661D01*
X79730Y-33175D01*
X78730Y-33175D01*
X78730Y-32661D01*
X78440Y-32371D01*
X78369Y-32442D01*
X78369Y-32300D01*
X78079Y-32010D01*
X77988Y-32033D01*
X77946Y-32151D01*
X77885Y-32003D01*
X77738Y-31855D01*
X77545Y-31775D01*
X77336Y-31775D01*
X77143Y-31855D01*
X76995Y-32002D01*
X76969Y-32063D01*
X76969Y-30074D01*
X76958Y-29870D01*
X76902Y-29733D01*
X76811Y-29710D01*
X76740Y-29781D01*
X76740Y-29639D01*
X76717Y-29548D01*
X76524Y-29481D01*
X76320Y-29492D01*
X76183Y-29548D01*
X76160Y-29639D01*
X76450Y-29929D01*
X76740Y-29639D01*
X76740Y-29781D01*
X76521Y-30000D01*
X76811Y-30290D01*
X76902Y-30267D01*
X76969Y-30074D01*
X76969Y-32063D01*
X76939Y-32135D01*
X76885Y-32003D01*
X76740Y-31857D01*
X76740Y-30361D01*
X76450Y-30071D01*
X76379Y-30142D01*
X76379Y-30000D01*
X76089Y-29710D01*
X75998Y-29733D01*
X75959Y-29845D01*
X75959Y-29834D01*
X75948Y-29630D01*
X75892Y-29493D01*
X75801Y-29470D01*
X75511Y-29760D01*
X75801Y-30050D01*
X75892Y-30027D01*
X75959Y-29834D01*
X75959Y-29845D01*
X75931Y-29926D01*
X75942Y-30130D01*
X75998Y-30267D01*
X76089Y-30290D01*
X76379Y-30000D01*
X76379Y-30142D01*
X76160Y-30361D01*
X76183Y-30452D01*
X76376Y-30519D01*
X76580Y-30508D01*
X76717Y-30452D01*
X76740Y-30361D01*
X76740Y-31857D01*
X76738Y-31855D01*
X76545Y-31775D01*
X76336Y-31775D01*
X76143Y-31855D01*
X75995Y-32002D01*
X75939Y-32135D01*
X75885Y-32003D01*
X75738Y-31855D01*
X75730Y-31851D01*
X75730Y-30121D01*
X75440Y-29831D01*
X75369Y-29902D01*
X75369Y-29760D01*
X75079Y-29470D01*
X74988Y-29493D01*
X74921Y-29686D01*
X74932Y-29890D01*
X74988Y-30027D01*
X75079Y-30050D01*
X75369Y-29760D01*
X75369Y-29902D01*
X75150Y-30121D01*
X75173Y-30212D01*
X75366Y-30279D01*
X75570Y-30268D01*
X75707Y-30212D01*
X75730Y-30121D01*
X75730Y-31851D01*
X75545Y-31775D01*
X75336Y-31775D01*
X75143Y-31855D01*
X74995Y-32002D01*
X74964Y-32076D01*
X74964Y-31976D01*
X74926Y-31884D01*
X74856Y-31814D01*
X74765Y-31776D01*
X74666Y-31776D01*
X74352Y-31776D01*
X70719Y-28142D01*
X70719Y-25274D01*
X70708Y-25070D01*
X70652Y-24933D01*
X70561Y-24910D01*
X70490Y-24981D01*
X70490Y-24839D01*
X70467Y-24748D01*
X70274Y-24681D01*
X70070Y-24692D01*
X69933Y-24748D01*
X69910Y-24839D01*
X70200Y-25129D01*
X70490Y-24839D01*
X70490Y-24981D01*
X70271Y-25200D01*
X70561Y-25490D01*
X70652Y-25467D01*
X70719Y-25274D01*
X70719Y-28142D01*
X70490Y-27913D01*
X69729Y-27152D01*
X69729Y-25932D01*
X69760Y-25901D01*
X69825Y-25745D01*
X69825Y-25580D01*
X69893Y-25648D01*
X69924Y-25616D01*
X69933Y-25652D01*
X70126Y-25719D01*
X70330Y-25708D01*
X70467Y-25652D01*
X70490Y-25561D01*
X70235Y-25306D01*
X70200Y-25271D01*
X70129Y-25200D01*
X70094Y-25165D01*
X69839Y-24910D01*
X69748Y-24933D01*
X69681Y-25126D01*
X69692Y-25330D01*
X69706Y-25365D01*
X69641Y-25300D01*
X69485Y-25235D01*
X69316Y-25235D01*
X69160Y-25299D01*
X69040Y-25419D01*
X68975Y-25575D01*
X68975Y-25744D01*
X69039Y-25900D01*
X69111Y-25972D01*
X69111Y-27280D01*
X69135Y-27398D01*
X69202Y-27498D01*
X73916Y-32212D01*
X73916Y-32624D01*
X73954Y-32716D01*
X74024Y-32786D01*
X74115Y-32824D01*
X74214Y-32824D01*
X74764Y-32824D01*
X74856Y-32786D01*
X74926Y-32716D01*
X74964Y-32625D01*
X74964Y-32526D01*
X74964Y-32522D01*
X74995Y-32597D01*
X75142Y-32745D01*
X75335Y-32825D01*
X75544Y-32825D01*
X75737Y-32745D01*
X75885Y-32598D01*
X75940Y-32464D01*
X75995Y-32597D01*
X76142Y-32745D01*
X76335Y-32825D01*
X76544Y-32825D01*
X76737Y-32745D01*
X76885Y-32598D01*
X76940Y-32464D01*
X76995Y-32597D01*
X77142Y-32745D01*
X77335Y-32825D01*
X77544Y-32825D01*
X77737Y-32745D01*
X77885Y-32598D01*
X77943Y-32457D01*
X77988Y-32567D01*
X78079Y-32590D01*
X78369Y-32300D01*
X78369Y-32442D01*
X78150Y-32661D01*
X78173Y-32752D01*
X78366Y-32819D01*
X78570Y-32808D01*
X78707Y-32752D01*
X78730Y-32661D01*
X78730Y-33175D01*
X72327Y-33175D01*
X72386Y-33116D01*
X72424Y-33025D01*
X72424Y-32926D01*
X72424Y-32376D01*
X72424Y-31925D01*
X72424Y-31826D01*
X72424Y-31276D01*
X72386Y-31184D01*
X72316Y-31114D01*
X72225Y-31076D01*
X72126Y-31076D01*
X71576Y-31076D01*
X71484Y-31114D01*
X71414Y-31184D01*
X71376Y-31275D01*
X71376Y-31374D01*
X71376Y-31377D01*
X71345Y-31303D01*
X71198Y-31155D01*
X71005Y-31075D01*
X70937Y-31075D01*
X70937Y-29713D01*
X70937Y-29502D01*
X70856Y-29307D01*
X70708Y-29158D01*
X70513Y-29077D01*
X70302Y-29077D01*
X70107Y-29158D01*
X69958Y-29306D01*
X69877Y-29501D01*
X69877Y-29712D01*
X69958Y-29907D01*
X70106Y-30056D01*
X70301Y-30137D01*
X70512Y-30137D01*
X70707Y-30056D01*
X70856Y-29908D01*
X70937Y-29713D01*
X70937Y-31075D01*
X70796Y-31075D01*
X70603Y-31155D01*
X70455Y-31302D01*
X70375Y-31495D01*
X70375Y-31704D01*
X70455Y-31897D01*
X70602Y-32045D01*
X70795Y-32125D01*
X71004Y-32125D01*
X71197Y-32045D01*
X71345Y-31898D01*
X71376Y-31823D01*
X71376Y-31924D01*
X71414Y-32016D01*
X71484Y-32086D01*
X71575Y-32124D01*
X71674Y-32124D01*
X72224Y-32124D01*
X72316Y-32086D01*
X72386Y-32016D01*
X72424Y-31925D01*
X72424Y-32376D01*
X72386Y-32284D01*
X72316Y-32214D01*
X72225Y-32176D01*
X72126Y-32176D01*
X71576Y-32176D01*
X71484Y-32214D01*
X71414Y-32284D01*
X71376Y-32375D01*
X71376Y-32474D01*
X71376Y-32477D01*
X71345Y-32403D01*
X71198Y-32255D01*
X71005Y-32175D01*
X70796Y-32175D01*
X70603Y-32255D01*
X70455Y-32402D01*
X70375Y-32595D01*
X70375Y-32804D01*
X70455Y-32997D01*
X70602Y-33145D01*
X70674Y-33175D01*
X69523Y-33175D01*
X69523Y-28299D01*
X69523Y-28088D01*
X69442Y-27893D01*
X69294Y-27744D01*
X69099Y-27663D01*
X68888Y-27663D01*
X68693Y-27744D01*
X68544Y-27892D01*
X68463Y-28087D01*
X68463Y-28298D01*
X68544Y-28493D01*
X68692Y-28642D01*
X68887Y-28723D01*
X69098Y-28723D01*
X69293Y-28642D01*
X69442Y-28494D01*
X69523Y-28299D01*
X69523Y-33175D01*
X67135Y-33175D01*
X66659Y-32699D01*
X66798Y-32699D01*
X66991Y-32619D01*
X67139Y-32472D01*
X67219Y-32279D01*
X67219Y-32070D01*
X67139Y-31877D01*
X66992Y-31729D01*
X66799Y-31649D01*
X66590Y-31649D01*
X66511Y-31681D01*
X66586Y-31607D01*
X66624Y-31515D01*
X66624Y-31417D01*
X66586Y-31325D01*
X66516Y-31255D01*
X66127Y-30866D01*
X66035Y-30828D01*
X65937Y-30828D01*
X65845Y-30866D01*
X65775Y-30936D01*
X65386Y-31325D01*
X65356Y-31396D01*
X62980Y-29020D01*
X62874Y-28950D01*
X62750Y-28925D01*
X58884Y-28925D01*
X58730Y-28770D01*
X58727Y-28768D01*
X58575Y-28615D01*
X58575Y-24884D01*
X58634Y-24825D01*
X62500Y-24825D01*
X62624Y-24800D01*
X62730Y-24730D01*
X67134Y-20325D01*
X84365Y-20325D01*
X84675Y-20635D01*
X84675Y-22558D01*
X84298Y-22182D01*
X84198Y-22115D01*
X84080Y-22091D01*
X84045Y-22091D01*
X84045Y-22089D01*
X83891Y-21935D01*
X83689Y-21851D01*
X83471Y-21851D01*
X83269Y-21935D01*
X83115Y-22089D01*
X83077Y-22180D01*
X83052Y-22119D01*
X82958Y-22092D01*
X82854Y-22196D01*
X82826Y-22154D01*
X82783Y-22125D01*
X82888Y-22022D01*
X82861Y-21928D01*
X82659Y-21857D01*
X82446Y-21868D01*
X82299Y-21928D01*
X82272Y-22022D01*
X82376Y-22125D01*
X82334Y-22154D01*
X82305Y-22196D01*
X82202Y-22092D01*
X82108Y-22119D01*
X82037Y-22321D01*
X82048Y-22534D01*
X82108Y-22681D01*
X82202Y-22708D01*
X82232Y-22677D01*
X82232Y-22972D01*
X82115Y-23089D01*
X82082Y-23167D01*
X82046Y-23114D01*
X80986Y-22054D01*
X80874Y-21978D01*
X80740Y-21952D01*
X77674Y-21952D01*
X77674Y-21575D01*
X77674Y-21476D01*
X77674Y-20926D01*
X77636Y-20834D01*
X77566Y-20764D01*
X77475Y-20726D01*
X77376Y-20726D01*
X76826Y-20726D01*
X76734Y-20764D01*
X76664Y-20834D01*
X76626Y-20925D01*
X76626Y-21024D01*
X76626Y-21027D01*
X76595Y-20953D01*
X76448Y-20805D01*
X76255Y-20725D01*
X76046Y-20725D01*
X75853Y-20805D01*
X75705Y-20952D01*
X75649Y-21085D01*
X75595Y-20953D01*
X75448Y-20805D01*
X75255Y-20725D01*
X75046Y-20725D01*
X74853Y-20805D01*
X74705Y-20952D01*
X74646Y-21092D01*
X74602Y-20983D01*
X74511Y-20960D01*
X74440Y-21031D01*
X74440Y-20889D01*
X74417Y-20798D01*
X74224Y-20731D01*
X74020Y-20742D01*
X73883Y-20798D01*
X73860Y-20889D01*
X74150Y-21179D01*
X74440Y-20889D01*
X74440Y-21031D01*
X74221Y-21250D01*
X74511Y-21540D01*
X74602Y-21517D01*
X74643Y-21398D01*
X74705Y-21547D01*
X74852Y-21695D01*
X75045Y-21775D01*
X75254Y-21775D01*
X75447Y-21695D01*
X75595Y-21548D01*
X75650Y-21414D01*
X75705Y-21547D01*
X75852Y-21695D01*
X76045Y-21775D01*
X76254Y-21775D01*
X76447Y-21695D01*
X76595Y-21548D01*
X76626Y-21473D01*
X76626Y-21574D01*
X76664Y-21666D01*
X76734Y-21736D01*
X76825Y-21774D01*
X76924Y-21774D01*
X77474Y-21774D01*
X77566Y-21736D01*
X77636Y-21666D01*
X77674Y-21575D01*
X77674Y-21952D01*
X74440Y-21952D01*
X74440Y-21611D01*
X74150Y-21321D01*
X74079Y-21392D01*
X74079Y-21250D01*
X73789Y-20960D01*
X73698Y-20983D01*
X73631Y-21176D01*
X73642Y-21380D01*
X73698Y-21517D01*
X73789Y-21540D01*
X74079Y-21250D01*
X74079Y-21392D01*
X73860Y-21611D01*
X73883Y-21702D01*
X74076Y-21769D01*
X74280Y-21758D01*
X74417Y-21702D01*
X74440Y-21611D01*
X74440Y-21952D01*
X73424Y-21952D01*
X73298Y-21825D01*
X73298Y-21764D01*
X73366Y-21736D01*
X73436Y-21666D01*
X73474Y-21575D01*
X73474Y-21476D01*
X73474Y-20926D01*
X73436Y-20834D01*
X73366Y-20764D01*
X73275Y-20726D01*
X73176Y-20726D01*
X72626Y-20726D01*
X72534Y-20764D01*
X72464Y-20834D01*
X72426Y-20925D01*
X72426Y-21024D01*
X72426Y-21027D01*
X72395Y-20953D01*
X72248Y-20805D01*
X72055Y-20725D01*
X71846Y-20725D01*
X71653Y-20805D01*
X71505Y-20952D01*
X71449Y-21085D01*
X71395Y-20953D01*
X71248Y-20805D01*
X71055Y-20725D01*
X70846Y-20725D01*
X70653Y-20805D01*
X70505Y-20952D01*
X70446Y-21092D01*
X70402Y-20983D01*
X70311Y-20960D01*
X70240Y-21031D01*
X70240Y-20889D01*
X70217Y-20798D01*
X70024Y-20731D01*
X69820Y-20742D01*
X69683Y-20798D01*
X69660Y-20889D01*
X69950Y-21179D01*
X70240Y-20889D01*
X70240Y-21031D01*
X70021Y-21250D01*
X70311Y-21540D01*
X70402Y-21517D01*
X70443Y-21398D01*
X70505Y-21547D01*
X70652Y-21695D01*
X70845Y-21775D01*
X71054Y-21775D01*
X71247Y-21695D01*
X71395Y-21548D01*
X71450Y-21414D01*
X71505Y-21547D01*
X71652Y-21695D01*
X71845Y-21775D01*
X72054Y-21775D01*
X72247Y-21695D01*
X72395Y-21548D01*
X72426Y-21473D01*
X72426Y-21574D01*
X72464Y-21666D01*
X72534Y-21736D01*
X72602Y-21764D01*
X72602Y-21845D01*
X70725Y-23722D01*
X70725Y-23305D01*
X70725Y-23096D01*
X70645Y-22903D01*
X70498Y-22755D01*
X70305Y-22675D01*
X70240Y-22675D01*
X70240Y-21611D01*
X69950Y-21321D01*
X69879Y-21392D01*
X69879Y-21250D01*
X69589Y-20960D01*
X69498Y-20983D01*
X69431Y-21176D01*
X69442Y-21380D01*
X69498Y-21517D01*
X69589Y-21540D01*
X69879Y-21250D01*
X69879Y-21392D01*
X69660Y-21611D01*
X69683Y-21702D01*
X69876Y-21769D01*
X70080Y-21758D01*
X70217Y-21702D01*
X70240Y-21611D01*
X70240Y-22675D01*
X70096Y-22675D01*
X69903Y-22755D01*
X69755Y-22902D01*
X69675Y-23095D01*
X69675Y-23304D01*
X69755Y-23497D01*
X69902Y-23645D01*
X70095Y-23725D01*
X70304Y-23725D01*
X70497Y-23645D01*
X70645Y-23498D01*
X70725Y-23305D01*
X70725Y-23722D01*
X70575Y-23872D01*
X69560Y-23872D01*
X69426Y-23898D01*
X69314Y-23974D01*
X67725Y-25563D01*
X67725Y-23305D01*
X67725Y-23096D01*
X67645Y-22903D01*
X67498Y-22755D01*
X67305Y-22675D01*
X67096Y-22675D01*
X66903Y-22755D01*
X66755Y-22902D01*
X66675Y-23095D01*
X66675Y-23304D01*
X66755Y-23497D01*
X66902Y-23645D01*
X67095Y-23725D01*
X67304Y-23725D01*
X67497Y-23645D01*
X67645Y-23498D01*
X67725Y-23305D01*
X67725Y-25563D01*
X67719Y-25569D01*
X67719Y-25274D01*
X67708Y-25070D01*
X67652Y-24933D01*
X67561Y-24910D01*
X67490Y-24981D01*
X67490Y-24839D01*
X67467Y-24748D01*
X67274Y-24681D01*
X67070Y-24692D01*
X66933Y-24748D01*
X66910Y-24839D01*
X67200Y-25129D01*
X67490Y-24839D01*
X67490Y-24981D01*
X67271Y-25200D01*
X67561Y-25490D01*
X67652Y-25467D01*
X67719Y-25274D01*
X67719Y-25569D01*
X67490Y-25798D01*
X67490Y-25561D01*
X67200Y-25271D01*
X67129Y-25342D01*
X67129Y-25200D01*
X66839Y-24910D01*
X66748Y-24933D01*
X66681Y-25126D01*
X66692Y-25330D01*
X66748Y-25467D01*
X66839Y-25490D01*
X67129Y-25200D01*
X67129Y-25342D01*
X66910Y-25561D01*
X66933Y-25652D01*
X67126Y-25719D01*
X67330Y-25708D01*
X67467Y-25652D01*
X67490Y-25561D01*
X67490Y-25798D01*
X66149Y-27139D01*
X66149Y-24909D01*
X66149Y-24691D01*
X66065Y-24489D01*
X65911Y-24335D01*
X65709Y-24251D01*
X65491Y-24251D01*
X65289Y-24335D01*
X65135Y-24489D01*
X65051Y-24691D01*
X65051Y-24909D01*
X65135Y-25111D01*
X65289Y-25265D01*
X65491Y-25349D01*
X65709Y-25349D01*
X65911Y-25265D01*
X66065Y-25111D01*
X66149Y-24909D01*
X66149Y-27139D01*
X65354Y-27934D01*
X65278Y-28046D01*
X65252Y-28180D01*
X65252Y-28372D01*
X65135Y-28489D01*
X65051Y-28691D01*
X65051Y-28909D01*
X65135Y-29111D01*
X65289Y-29265D01*
X65491Y-29349D01*
X65709Y-29349D01*
X65911Y-29265D01*
X66065Y-29111D01*
X66149Y-28909D01*
X66149Y-28691D01*
X66065Y-28489D01*
X65948Y-28372D01*
X65948Y-28324D01*
X69704Y-24568D01*
X70720Y-24568D01*
X70853Y-24542D01*
X70854Y-24542D01*
X70966Y-24466D01*
X72602Y-22830D01*
X72602Y-25890D01*
X72628Y-26024D01*
X72704Y-26136D01*
X74435Y-27867D01*
X74435Y-27884D01*
X74499Y-28040D01*
X74619Y-28160D01*
X74775Y-28225D01*
X74944Y-28225D01*
X74985Y-28207D01*
X75024Y-28246D01*
X75115Y-28284D01*
X75214Y-28284D01*
X75143Y-28315D01*
X74995Y-28462D01*
X74915Y-28655D01*
X74915Y-28864D01*
X74995Y-29057D01*
X75142Y-29205D01*
X75282Y-29263D01*
X75173Y-29308D01*
X75150Y-29399D01*
X75440Y-29689D01*
X75730Y-29399D01*
X75707Y-29308D01*
X75588Y-29266D01*
X75737Y-29205D01*
X75885Y-29058D01*
X75965Y-28865D01*
X75965Y-28656D01*
X75885Y-28463D01*
X75738Y-28315D01*
X75663Y-28284D01*
X75764Y-28284D01*
X75856Y-28246D01*
X75926Y-28176D01*
X75940Y-28141D01*
X76005Y-28297D01*
X76152Y-28445D01*
X76345Y-28525D01*
X76554Y-28525D01*
X76747Y-28445D01*
X76895Y-28298D01*
X76975Y-28105D01*
X76975Y-27896D01*
X76975Y-25005D01*
X76975Y-24796D01*
X76895Y-24603D01*
X76748Y-24455D01*
X76555Y-24375D01*
X76346Y-24375D01*
X76153Y-24455D01*
X76005Y-24602D01*
X75925Y-24795D01*
X75925Y-25004D01*
X76005Y-25197D01*
X76152Y-25345D01*
X76345Y-25425D01*
X76554Y-25425D01*
X76747Y-25345D01*
X76895Y-25198D01*
X76975Y-25005D01*
X76975Y-27896D01*
X76969Y-27881D01*
X76969Y-26974D01*
X76958Y-26770D01*
X76902Y-26633D01*
X76811Y-26610D01*
X76740Y-26681D01*
X76740Y-26539D01*
X76717Y-26448D01*
X76524Y-26381D01*
X76320Y-26392D01*
X76183Y-26448D01*
X76160Y-26539D01*
X76450Y-26829D01*
X76740Y-26539D01*
X76740Y-26681D01*
X76521Y-26900D01*
X76811Y-27190D01*
X76902Y-27167D01*
X76969Y-26974D01*
X76969Y-27881D01*
X76895Y-27703D01*
X76748Y-27555D01*
X76740Y-27551D01*
X76740Y-27261D01*
X76450Y-26971D01*
X76379Y-27042D01*
X76379Y-26900D01*
X76089Y-26610D01*
X75998Y-26633D01*
X75931Y-26826D01*
X75942Y-27030D01*
X75998Y-27167D01*
X76089Y-27190D01*
X76379Y-26900D01*
X76379Y-27042D01*
X76160Y-27261D01*
X76183Y-27352D01*
X76376Y-27419D01*
X76580Y-27408D01*
X76717Y-27352D01*
X76740Y-27261D01*
X76740Y-27551D01*
X76555Y-27475D01*
X76346Y-27475D01*
X76153Y-27555D01*
X76005Y-27702D01*
X75964Y-27800D01*
X75964Y-27436D01*
X75926Y-27344D01*
X75856Y-27274D01*
X75765Y-27236D01*
X75666Y-27236D01*
X75116Y-27236D01*
X75024Y-27274D01*
X74954Y-27344D01*
X74941Y-27375D01*
X74927Y-27375D01*
X73298Y-25746D01*
X73298Y-22648D01*
X80596Y-22648D01*
X81452Y-23504D01*
X81452Y-25620D01*
X81478Y-25754D01*
X81554Y-25866D01*
X82031Y-26343D01*
X82031Y-26509D01*
X82115Y-26711D01*
X82269Y-26865D01*
X82471Y-26949D01*
X82689Y-26949D01*
X82891Y-26865D01*
X83031Y-26725D01*
X83031Y-26749D01*
X83069Y-26841D01*
X83139Y-26911D01*
X83230Y-26949D01*
X83329Y-26949D01*
X83929Y-26949D01*
X84021Y-26911D01*
X84091Y-26841D01*
X84111Y-26793D01*
X84111Y-27663D01*
X84105Y-27649D01*
X83951Y-27495D01*
X83749Y-27411D01*
X83531Y-27411D01*
X83329Y-27495D01*
X83175Y-27649D01*
X83137Y-27740D01*
X83112Y-27679D01*
X83018Y-27652D01*
X82948Y-27722D01*
X82948Y-27582D01*
X82921Y-27488D01*
X82719Y-27417D01*
X82506Y-27428D01*
X82359Y-27488D01*
X82332Y-27582D01*
X82640Y-27889D01*
X82948Y-27582D01*
X82948Y-27722D01*
X82711Y-27960D01*
X82640Y-28031D01*
X82569Y-27960D01*
X82534Y-27925D01*
X82262Y-27652D01*
X82168Y-27679D01*
X82097Y-27881D01*
X82108Y-28094D01*
X82131Y-28151D01*
X81060Y-28151D01*
X80942Y-28175D01*
X80908Y-28197D01*
X80851Y-28235D01*
X80776Y-28235D01*
X80620Y-28299D01*
X80500Y-28419D01*
X80435Y-28575D01*
X80435Y-28744D01*
X80499Y-28900D01*
X80606Y-29007D01*
X80580Y-29019D01*
X80460Y-29139D01*
X80395Y-29295D01*
X80395Y-29464D01*
X80459Y-29620D01*
X80579Y-29740D01*
X80735Y-29805D01*
X80904Y-29805D01*
X80991Y-29769D01*
X82125Y-29769D01*
X82091Y-29851D01*
X82091Y-30069D01*
X82175Y-30271D01*
X82329Y-30425D01*
X82531Y-30509D01*
X82749Y-30509D01*
X82951Y-30425D01*
X83091Y-30285D01*
X83091Y-30309D01*
X83129Y-30401D01*
X83199Y-30471D01*
X83290Y-30509D01*
X83389Y-30509D01*
X83989Y-30509D01*
X84081Y-30471D01*
X84151Y-30401D01*
X84189Y-30310D01*
X84189Y-30267D01*
X84189Y-30266D01*
X84298Y-30245D01*
X84398Y-30178D01*
X84675Y-29901D01*
X84675Y-32615D01*
M02*
