M48
;DRILL file {Pcbnew (2012-jan-04)-stable} date Пт. 17 авг. 2012 15:24:38
;FORMAT={3:3/ absolute / metric / suppress trailing zeros}
FMAT,2
METRIC,LZ
T1C0.399
T2C0.762
T3C0.813
T4C1.016
%
G90
G05
M71
T1
X14224Y-107315
X142875Y-11811
X150622Y-113157
X153162Y-102616
X155448Y-110998
X155448Y-115316
X155702Y-113157
X156655Y-10414
X156972Y-115824
X157988Y-110744
X158052Y-11557
X159131Y-115761
X159639Y-109601
X160274Y-110871
X160909Y-11557
X162306Y-118491
X16237Y-117285
X162751Y-105855
X164465Y-117221
X164592Y-109919
X167386Y-109728
X167386Y-12065
X17399Y-102044
X182245Y-123698
T2
X150477Y-119743
X154069Y-123335
T3
X139436Y-117846
X141234Y-119644
X142611Y-102606
X144409Y-104404
X14478Y-107442
X14478Y-117602
X145151Y-100066
X146949Y-101864
X150449Y-102499
X1524Y-12827
X154041Y-106091
X15494Y-12827
X155839Y-097109
X15748Y-12827
X159431Y-100701
X159865Y-097635
X16002Y-12827
X161661Y-099431
X16256Y-12827
X163459Y-101229
X164818Y-097635
X164973Y-106553
X165255Y-103025
X16637Y-12827
X166614Y-099431
X167513Y-106553
X168412Y-101229
X16891Y-12827
X170053Y-106553
X170208Y-103025
X17145Y-12827
X172466Y-104648
X172466Y-109728
X172466Y-113284
X172466Y-118364
X17399Y-12827
X17507Y-0976
X17761Y-0976
X1778Y-12827
X180086Y-104648
X180086Y-109728
X180086Y-113284
X180086Y-118364
X18034Y-12827
X18288Y-12827
X18542Y-12827
T4
X183134Y-098044
X183134Y-100584
X183134Y-103124
X183134Y-105664
X183134Y-108204
X183134Y-115824
X183134Y-118364
X183134Y-120904
X185674Y-098044
X185674Y-100584
X185674Y-103124
X185674Y-105664
X185674Y-108204
X185674Y-115824
X185674Y-118364
X185674Y-120904
T0
M30
