G04 (created by PCBNEW-RS274X (2012-jan-04)-stable) date Пт. 17 авг. 2012 15:46:30*
G01*
G70*
G90*
%MOIN*%
G04 Gerber Fmt 3.4, Leading zero omitted, Abs format*
%FSLAX34Y34*%
G04 APERTURE LIST*
%ADD10C,0.006000*%
%ADD11C,0.015000*%
%ADD12C,0.012000*%
%ADD13C,0.005000*%
%ADD14C,0.008000*%
%ADD15C,0.002600*%
%ADD16C,0.004000*%
%ADD17C,0.002000*%
%ADD18C,0.012500*%
G04 APERTURE END LIST*
G54D10*
G54D11*
X71900Y-43650D02*
X71000Y-42750D01*
G54D12*
X69936Y-48974D02*
X70136Y-49774D01*
X70336Y-48974D01*
X70536Y-49774D02*
X70536Y-48974D01*
X70736Y-49545D01*
X70936Y-48974D01*
X70936Y-49774D01*
X71222Y-49355D02*
X71422Y-49355D01*
X71508Y-49774D02*
X71222Y-49774D01*
X71222Y-48974D01*
X71508Y-48974D01*
X71679Y-48974D02*
X72022Y-48974D01*
X71851Y-49774D02*
X71851Y-48974D01*
X72222Y-49355D02*
X72422Y-49355D01*
X72508Y-49774D02*
X72222Y-49774D01*
X72222Y-48974D01*
X72508Y-48974D01*
X73108Y-49774D02*
X72908Y-49393D01*
X72765Y-49774D02*
X72765Y-48974D01*
X72993Y-48974D01*
X73051Y-49012D01*
X73079Y-49050D01*
X73108Y-49126D01*
X73108Y-49240D01*
X73079Y-49317D01*
X73051Y-49355D01*
X72993Y-49393D01*
X72765Y-49393D01*
X59779Y-37500D02*
X59808Y-37462D01*
X59865Y-37424D01*
X60008Y-37424D01*
X60065Y-37462D01*
X60094Y-37500D01*
X60122Y-37576D01*
X60122Y-37652D01*
X60094Y-37767D01*
X59751Y-38224D01*
X60122Y-38224D01*
X71943Y-43724D02*
X71943Y-44371D01*
X71971Y-44448D01*
X72000Y-44486D01*
X72057Y-44524D01*
X72171Y-44524D01*
X72229Y-44486D01*
X72257Y-44448D01*
X72286Y-44371D01*
X72286Y-43724D01*
X72543Y-44486D02*
X72629Y-44524D01*
X72772Y-44524D01*
X72829Y-44486D01*
X72858Y-44448D01*
X72886Y-44371D01*
X72886Y-44295D01*
X72858Y-44219D01*
X72829Y-44181D01*
X72772Y-44143D01*
X72658Y-44105D01*
X72600Y-44067D01*
X72572Y-44029D01*
X72543Y-43952D01*
X72543Y-43876D01*
X72572Y-43800D01*
X72600Y-43762D01*
X72658Y-43724D01*
X72800Y-43724D01*
X72886Y-43762D01*
X73486Y-44524D02*
X73286Y-44143D01*
X73143Y-44524D02*
X73143Y-43724D01*
X73371Y-43724D01*
X73429Y-43762D01*
X73457Y-43800D01*
X73486Y-43876D01*
X73486Y-43990D01*
X73457Y-44067D01*
X73429Y-44105D01*
X73371Y-44143D01*
X73143Y-44143D01*
X69057Y-48224D02*
X68857Y-47843D01*
X68714Y-48224D02*
X68714Y-47424D01*
X68942Y-47424D01*
X69000Y-47462D01*
X69028Y-47500D01*
X69057Y-47576D01*
X69057Y-47690D01*
X69028Y-47767D01*
X69000Y-47805D01*
X68942Y-47843D01*
X68714Y-47843D01*
X69314Y-47424D02*
X69314Y-48071D01*
X69342Y-48148D01*
X69371Y-48186D01*
X69428Y-48224D01*
X69542Y-48224D01*
X69600Y-48186D01*
X69628Y-48148D01*
X69657Y-48071D01*
X69657Y-47424D01*
X69943Y-48224D02*
X69943Y-47424D01*
X70286Y-48224D01*
X70286Y-47424D01*
X62622Y-41824D02*
X62422Y-41443D01*
X62279Y-41824D02*
X62279Y-41024D01*
X62507Y-41024D01*
X62565Y-41062D01*
X62593Y-41100D01*
X62622Y-41176D01*
X62622Y-41290D01*
X62593Y-41367D01*
X62565Y-41405D01*
X62507Y-41443D01*
X62279Y-41443D01*
X62850Y-41786D02*
X62936Y-41824D01*
X63079Y-41824D01*
X63136Y-41786D01*
X63165Y-41748D01*
X63193Y-41671D01*
X63193Y-41595D01*
X63165Y-41519D01*
X63136Y-41481D01*
X63079Y-41443D01*
X62965Y-41405D01*
X62907Y-41367D01*
X62879Y-41329D01*
X62850Y-41252D01*
X62850Y-41176D01*
X62879Y-41100D01*
X62907Y-41062D01*
X62965Y-41024D01*
X63107Y-41024D01*
X63193Y-41062D01*
X63364Y-41024D02*
X63707Y-41024D01*
X63536Y-41824D02*
X63536Y-41024D01*
X65100Y-49774D02*
X65100Y-48974D01*
X65328Y-48974D01*
X65386Y-49012D01*
X65414Y-49050D01*
X65443Y-49126D01*
X65443Y-49240D01*
X65414Y-49317D01*
X65386Y-49355D01*
X65328Y-49393D01*
X65100Y-49393D01*
X65643Y-48974D02*
X65786Y-49774D01*
X65900Y-49202D01*
X66014Y-49774D01*
X66157Y-48974D01*
X66386Y-49774D02*
X66386Y-48974D01*
X66586Y-49545D01*
X66786Y-48974D01*
X66786Y-49774D01*
X67500Y-48936D02*
X66986Y-49964D01*
X67701Y-49774D02*
X67701Y-48974D01*
X68330Y-49698D02*
X68301Y-49736D01*
X68215Y-49774D01*
X68158Y-49774D01*
X68073Y-49736D01*
X68015Y-49660D01*
X67987Y-49583D01*
X67958Y-49431D01*
X67958Y-49317D01*
X67987Y-49164D01*
X68015Y-49088D01*
X68073Y-49012D01*
X68158Y-48974D01*
X68215Y-48974D01*
X68301Y-49012D01*
X68330Y-49050D01*
X68587Y-49774D02*
X68587Y-48974D01*
X68815Y-48974D01*
X68873Y-49012D01*
X68901Y-49050D01*
X68930Y-49126D01*
X68930Y-49240D01*
X68901Y-49317D01*
X68873Y-49355D01*
X68815Y-49393D01*
X68587Y-49393D01*
X60679Y-49405D02*
X60879Y-49405D01*
X60965Y-49824D02*
X60679Y-49824D01*
X60679Y-49024D01*
X60965Y-49024D01*
X61165Y-49024D02*
X61565Y-49824D01*
X61565Y-49024D02*
X61165Y-49824D01*
X61707Y-49024D02*
X62050Y-49024D01*
X61879Y-49824D02*
X61879Y-49024D01*
X62107Y-49900D02*
X62564Y-49900D01*
X62707Y-49824D02*
X62707Y-49024D01*
X62935Y-49024D01*
X62993Y-49062D01*
X63021Y-49100D01*
X63050Y-49176D01*
X63050Y-49290D01*
X63021Y-49367D01*
X62993Y-49405D01*
X62935Y-49443D01*
X62707Y-49443D01*
X63307Y-49824D02*
X63307Y-49024D01*
X63450Y-49024D01*
X63535Y-49062D01*
X63593Y-49138D01*
X63621Y-49214D01*
X63650Y-49367D01*
X63650Y-49481D01*
X63621Y-49633D01*
X63593Y-49710D01*
X63535Y-49786D01*
X63450Y-49824D01*
X63307Y-49824D01*
X58893Y-38274D02*
X58893Y-37474D01*
X59121Y-37474D01*
X59179Y-37512D01*
X59207Y-37550D01*
X59236Y-37626D01*
X59236Y-37740D01*
X59207Y-37817D01*
X59179Y-37855D01*
X59121Y-37893D01*
X58893Y-37893D01*
X58329Y-38386D02*
X58415Y-38424D01*
X58558Y-38424D01*
X58615Y-38386D01*
X58644Y-38348D01*
X58672Y-38271D01*
X58672Y-38195D01*
X58644Y-38119D01*
X58615Y-38081D01*
X58558Y-38043D01*
X58444Y-38005D01*
X58386Y-37967D01*
X58358Y-37929D01*
X58329Y-37852D01*
X58329Y-37776D01*
X58358Y-37700D01*
X58386Y-37662D01*
X58444Y-37624D01*
X58586Y-37624D01*
X58672Y-37662D01*
X58100Y-38274D02*
X58100Y-37474D01*
X57779Y-37990D02*
X57779Y-38524D01*
X57522Y-37990D02*
X57522Y-38410D01*
X57550Y-38486D01*
X57608Y-38524D01*
X57693Y-38524D01*
X57750Y-38486D01*
X57779Y-38448D01*
X74574Y-48650D02*
X73774Y-48650D01*
X74536Y-48393D02*
X74574Y-48307D01*
X74574Y-48164D01*
X74536Y-48107D01*
X74498Y-48078D01*
X74421Y-48050D01*
X74345Y-48050D01*
X74269Y-48078D01*
X74231Y-48107D01*
X74193Y-48164D01*
X74155Y-48278D01*
X74117Y-48336D01*
X74079Y-48364D01*
X74002Y-48393D01*
X73926Y-48393D01*
X73850Y-48364D01*
X73812Y-48336D01*
X73774Y-48278D01*
X73774Y-48136D01*
X73812Y-48050D01*
X74574Y-47793D02*
X73774Y-47793D01*
X73774Y-47565D01*
X73812Y-47507D01*
X73850Y-47479D01*
X73926Y-47450D01*
X74040Y-47450D01*
X74117Y-47479D01*
X74155Y-47507D01*
X74193Y-47565D01*
X74193Y-47793D01*
X74269Y-47193D02*
X74269Y-46736D01*
X73774Y-46193D02*
X73774Y-46307D01*
X73812Y-46364D01*
X73850Y-46393D01*
X73964Y-46450D01*
X74117Y-46479D01*
X74421Y-46479D01*
X74498Y-46450D01*
X74536Y-46422D01*
X74574Y-46364D01*
X74574Y-46250D01*
X74536Y-46193D01*
X74498Y-46164D01*
X74421Y-46136D01*
X74231Y-46136D01*
X74155Y-46164D01*
X74117Y-46193D01*
X74079Y-46250D01*
X74079Y-46364D01*
X74117Y-46422D01*
X74155Y-46450D01*
X74231Y-46479D01*
X74574Y-45879D02*
X73774Y-45879D01*
X73774Y-45651D01*
X73812Y-45593D01*
X73850Y-45565D01*
X73926Y-45536D01*
X74040Y-45536D01*
X74117Y-45565D01*
X74155Y-45593D01*
X74193Y-45651D01*
X74193Y-45879D01*
X74574Y-45279D02*
X73774Y-45279D01*
X74574Y-44993D02*
X73774Y-44993D01*
X74574Y-44650D01*
X73774Y-44650D01*
X74574Y-42735D02*
X73774Y-42735D01*
X74536Y-42478D02*
X74574Y-42392D01*
X74574Y-42249D01*
X74536Y-42192D01*
X74498Y-42163D01*
X74421Y-42135D01*
X74345Y-42135D01*
X74269Y-42163D01*
X74231Y-42192D01*
X74193Y-42249D01*
X74155Y-42363D01*
X74117Y-42421D01*
X74079Y-42449D01*
X74002Y-42478D01*
X73926Y-42478D01*
X73850Y-42449D01*
X73812Y-42421D01*
X73774Y-42363D01*
X73774Y-42221D01*
X73812Y-42135D01*
X74574Y-41878D02*
X73774Y-41878D01*
X73774Y-41650D01*
X73812Y-41592D01*
X73850Y-41564D01*
X73926Y-41535D01*
X74040Y-41535D01*
X74117Y-41564D01*
X74155Y-41592D01*
X74193Y-41650D01*
X74193Y-41878D01*
X74269Y-41278D02*
X74269Y-40821D01*
X74574Y-40221D02*
X74574Y-40564D01*
X74574Y-40392D02*
X73774Y-40392D01*
X73888Y-40449D01*
X73964Y-40507D01*
X74002Y-40564D01*
X73774Y-39850D02*
X73774Y-39793D01*
X73812Y-39736D01*
X73850Y-39707D01*
X73926Y-39678D01*
X74079Y-39650D01*
X74269Y-39650D01*
X74421Y-39678D01*
X74498Y-39707D01*
X74536Y-39736D01*
X74574Y-39793D01*
X74574Y-39850D01*
X74536Y-39907D01*
X74498Y-39936D01*
X74421Y-39964D01*
X74269Y-39993D01*
X74079Y-39993D01*
X73926Y-39964D01*
X73850Y-39936D01*
X73812Y-39907D01*
X73774Y-39850D01*
X74574Y-39393D02*
X73774Y-39393D01*
X73774Y-39165D01*
X73812Y-39107D01*
X73850Y-39079D01*
X73926Y-39050D01*
X74040Y-39050D01*
X74117Y-39079D01*
X74155Y-39107D01*
X74193Y-39165D01*
X74193Y-39393D01*
X74574Y-38793D02*
X73774Y-38793D01*
X74574Y-38507D02*
X73774Y-38507D01*
X74574Y-38164D01*
X73774Y-38164D01*
X56187Y-47724D02*
X55901Y-47724D01*
X55872Y-48105D01*
X55901Y-48067D01*
X55958Y-48029D01*
X56101Y-48029D01*
X56158Y-48067D01*
X56187Y-48105D01*
X56215Y-48181D01*
X56215Y-48371D01*
X56187Y-48448D01*
X56158Y-48486D01*
X56101Y-48524D01*
X55958Y-48524D01*
X55901Y-48486D01*
X55872Y-48448D01*
X56386Y-47724D02*
X56586Y-48524D01*
X56786Y-47724D01*
G54D10*
X64180Y-45490D02*
X63730Y-45490D01*
X64180Y-43310D02*
X63740Y-43310D01*
X64180Y-45490D02*
X64180Y-43310D01*
X63300Y-45960D02*
X63300Y-46390D01*
X61090Y-45970D02*
X61090Y-46390D01*
X61080Y-46390D02*
X63300Y-46400D01*
X61100Y-42420D02*
X63270Y-42410D01*
X60670Y-43110D02*
X60670Y-45940D01*
X63280Y-42420D02*
X63280Y-42830D01*
X60920Y-42870D02*
X63700Y-42870D01*
X63720Y-45950D02*
X63720Y-42910D01*
X60670Y-45950D02*
X63670Y-45950D01*
X60220Y-43280D02*
X60220Y-45500D01*
X60220Y-45500D02*
X60670Y-45500D01*
X60674Y-43100D02*
X60904Y-42870D01*
X60222Y-43280D02*
X60674Y-43280D01*
X61100Y-42870D02*
X61100Y-42418D01*
X61270Y-43274D02*
X61266Y-43310D01*
X61255Y-43345D01*
X61238Y-43378D01*
X61215Y-43406D01*
X61187Y-43429D01*
X61154Y-43447D01*
X61119Y-43458D01*
X61083Y-43461D01*
X61047Y-43458D01*
X61012Y-43448D01*
X60980Y-43431D01*
X60951Y-43408D01*
X60927Y-43380D01*
X60910Y-43348D01*
X60899Y-43313D01*
X60895Y-43276D01*
X60898Y-43241D01*
X60908Y-43205D01*
X60924Y-43173D01*
X60947Y-43144D01*
X60975Y-43120D01*
X61007Y-43102D01*
X61042Y-43091D01*
X61079Y-43087D01*
X61114Y-43089D01*
X61149Y-43099D01*
X61182Y-43116D01*
X61211Y-43138D01*
X61235Y-43166D01*
X61253Y-43198D01*
X61265Y-43233D01*
X61269Y-43269D01*
X61270Y-43274D01*
G54D13*
X70400Y-45600D02*
X70380Y-45794D01*
X70324Y-45981D01*
X70232Y-46153D01*
X70109Y-46304D01*
X69959Y-46429D01*
X69787Y-46521D01*
X69601Y-46579D01*
X69406Y-46599D01*
X69213Y-46582D01*
X69026Y-46527D01*
X68853Y-46436D01*
X68701Y-46314D01*
X68575Y-46164D01*
X68481Y-45993D01*
X68422Y-45807D01*
X68401Y-45613D01*
X68417Y-45420D01*
X68471Y-45232D01*
X68560Y-45059D01*
X68681Y-44906D01*
X68830Y-44779D01*
X69000Y-44684D01*
X69186Y-44624D01*
X69380Y-44601D01*
X69573Y-44616D01*
X69761Y-44668D01*
X69935Y-44756D01*
X70089Y-44876D01*
X70217Y-45024D01*
X70313Y-45194D01*
X70375Y-45379D01*
X70399Y-45573D01*
X70400Y-45600D01*
X67900Y-44100D02*
X70900Y-44100D01*
X70900Y-44100D02*
X70900Y-47100D01*
X70900Y-47100D02*
X67900Y-47100D01*
X67900Y-44100D02*
X67900Y-47100D01*
X70400Y-42200D02*
X70380Y-42394D01*
X70324Y-42581D01*
X70232Y-42753D01*
X70109Y-42904D01*
X69959Y-43029D01*
X69787Y-43121D01*
X69601Y-43179D01*
X69406Y-43199D01*
X69213Y-43182D01*
X69026Y-43127D01*
X68853Y-43036D01*
X68701Y-42914D01*
X68575Y-42764D01*
X68481Y-42593D01*
X68422Y-42407D01*
X68401Y-42213D01*
X68417Y-42020D01*
X68471Y-41832D01*
X68560Y-41659D01*
X68681Y-41506D01*
X68830Y-41379D01*
X69000Y-41284D01*
X69186Y-41224D01*
X69380Y-41201D01*
X69573Y-41216D01*
X69761Y-41268D01*
X69935Y-41356D01*
X70089Y-41476D01*
X70217Y-41624D01*
X70313Y-41794D01*
X70375Y-41979D01*
X70399Y-42173D01*
X70400Y-42200D01*
X70900Y-43700D02*
X67900Y-43700D01*
X67900Y-43700D02*
X67900Y-40700D01*
X67900Y-40700D02*
X70900Y-40700D01*
X70900Y-43700D02*
X70900Y-40700D01*
X61999Y-40000D02*
X61979Y-40194D01*
X61923Y-40380D01*
X61832Y-40552D01*
X61708Y-40703D01*
X61558Y-40828D01*
X61387Y-40920D01*
X61200Y-40978D01*
X61006Y-40998D01*
X60813Y-40981D01*
X60626Y-40926D01*
X60453Y-40835D01*
X60302Y-40713D01*
X60176Y-40564D01*
X60082Y-40393D01*
X60023Y-40207D01*
X60002Y-40013D01*
X60018Y-39820D01*
X60072Y-39633D01*
X60161Y-39459D01*
X60282Y-39307D01*
X60430Y-39180D01*
X60601Y-39085D01*
X60786Y-39025D01*
X60980Y-39002D01*
X61173Y-39017D01*
X61361Y-39069D01*
X61535Y-39157D01*
X61688Y-39277D01*
X61816Y-39425D01*
X61912Y-39594D01*
X61974Y-39779D01*
X61998Y-39973D01*
X61999Y-40000D01*
X58879Y-40000D02*
X61000Y-37879D01*
X61000Y-37879D02*
X63121Y-40000D01*
X63121Y-40000D02*
X61000Y-42121D01*
X58879Y-40000D02*
X61000Y-42121D01*
X66050Y-44650D02*
X66049Y-44659D01*
X66046Y-44669D01*
X66041Y-44677D01*
X66035Y-44685D01*
X66027Y-44691D01*
X66019Y-44696D01*
X66010Y-44698D01*
X66000Y-44699D01*
X65991Y-44699D01*
X65982Y-44696D01*
X65973Y-44691D01*
X65966Y-44685D01*
X65959Y-44678D01*
X65955Y-44669D01*
X65952Y-44660D01*
X65951Y-44650D01*
X65951Y-44641D01*
X65954Y-44632D01*
X65958Y-44623D01*
X65965Y-44616D01*
X65972Y-44609D01*
X65980Y-44605D01*
X65990Y-44602D01*
X65999Y-44601D01*
X66008Y-44601D01*
X66018Y-44604D01*
X66026Y-44608D01*
X66034Y-44614D01*
X66040Y-44622D01*
X66045Y-44630D01*
X66048Y-44639D01*
X66049Y-44649D01*
X66050Y-44650D01*
X66000Y-44200D02*
X66000Y-44600D01*
X66000Y-44600D02*
X65400Y-44600D01*
X65400Y-44600D02*
X65400Y-44200D01*
X65400Y-43800D02*
X65400Y-43400D01*
X65400Y-43400D02*
X66000Y-43400D01*
X66000Y-43400D02*
X66000Y-43800D01*
X66850Y-44650D02*
X66849Y-44659D01*
X66846Y-44669D01*
X66841Y-44677D01*
X66835Y-44685D01*
X66827Y-44691D01*
X66819Y-44696D01*
X66810Y-44698D01*
X66800Y-44699D01*
X66791Y-44699D01*
X66782Y-44696D01*
X66773Y-44691D01*
X66766Y-44685D01*
X66759Y-44678D01*
X66755Y-44669D01*
X66752Y-44660D01*
X66751Y-44650D01*
X66751Y-44641D01*
X66754Y-44632D01*
X66758Y-44623D01*
X66765Y-44616D01*
X66772Y-44609D01*
X66780Y-44605D01*
X66790Y-44602D01*
X66799Y-44601D01*
X66808Y-44601D01*
X66818Y-44604D01*
X66826Y-44608D01*
X66834Y-44614D01*
X66840Y-44622D01*
X66845Y-44630D01*
X66848Y-44639D01*
X66849Y-44649D01*
X66850Y-44650D01*
X66800Y-44200D02*
X66800Y-44600D01*
X66800Y-44600D02*
X66200Y-44600D01*
X66200Y-44600D02*
X66200Y-44200D01*
X66200Y-43800D02*
X66200Y-43400D01*
X66200Y-43400D02*
X66800Y-43400D01*
X66800Y-43400D02*
X66800Y-43800D01*
X68097Y-39897D02*
X68096Y-39906D01*
X68093Y-39916D01*
X68088Y-39924D01*
X68082Y-39932D01*
X68074Y-39938D01*
X68066Y-39943D01*
X68057Y-39945D01*
X68047Y-39946D01*
X68038Y-39946D01*
X68029Y-39943D01*
X68020Y-39938D01*
X68013Y-39932D01*
X68006Y-39925D01*
X68002Y-39916D01*
X67999Y-39907D01*
X67998Y-39897D01*
X67998Y-39888D01*
X68001Y-39879D01*
X68005Y-39870D01*
X68012Y-39863D01*
X68019Y-39856D01*
X68027Y-39852D01*
X68037Y-39849D01*
X68046Y-39848D01*
X68055Y-39848D01*
X68065Y-39851D01*
X68073Y-39855D01*
X68081Y-39861D01*
X68087Y-39869D01*
X68092Y-39877D01*
X68095Y-39886D01*
X68096Y-39896D01*
X68097Y-39897D01*
X67729Y-39579D02*
X68011Y-39862D01*
X68011Y-39862D02*
X67587Y-40286D01*
X67587Y-40286D02*
X67304Y-40004D01*
X67021Y-39721D02*
X66739Y-39438D01*
X66739Y-39438D02*
X67163Y-39014D01*
X67163Y-39014D02*
X67446Y-39296D01*
X67172Y-38847D02*
X67171Y-38856D01*
X67168Y-38866D01*
X67163Y-38874D01*
X67157Y-38882D01*
X67149Y-38888D01*
X67141Y-38893D01*
X67132Y-38895D01*
X67122Y-38896D01*
X67113Y-38896D01*
X67104Y-38893D01*
X67095Y-38888D01*
X67088Y-38882D01*
X67081Y-38875D01*
X67077Y-38866D01*
X67074Y-38857D01*
X67073Y-38847D01*
X67073Y-38838D01*
X67076Y-38829D01*
X67080Y-38820D01*
X67087Y-38813D01*
X67094Y-38806D01*
X67102Y-38802D01*
X67112Y-38799D01*
X67121Y-38798D01*
X67130Y-38798D01*
X67140Y-38801D01*
X67148Y-38805D01*
X67156Y-38811D01*
X67162Y-38819D01*
X67167Y-38827D01*
X67170Y-38836D01*
X67171Y-38846D01*
X67172Y-38847D01*
X66804Y-38529D02*
X67086Y-38812D01*
X67086Y-38812D02*
X66662Y-39236D01*
X66662Y-39236D02*
X66379Y-38954D01*
X66096Y-38671D02*
X65814Y-38388D01*
X65814Y-38388D02*
X66238Y-37964D01*
X66238Y-37964D02*
X66521Y-38246D01*
X58900Y-44500D02*
X58899Y-44509D01*
X58896Y-44519D01*
X58891Y-44527D01*
X58885Y-44535D01*
X58877Y-44541D01*
X58869Y-44546D01*
X58860Y-44548D01*
X58850Y-44549D01*
X58841Y-44549D01*
X58832Y-44546D01*
X58823Y-44541D01*
X58816Y-44535D01*
X58809Y-44528D01*
X58805Y-44519D01*
X58802Y-44510D01*
X58801Y-44500D01*
X58801Y-44491D01*
X58804Y-44482D01*
X58808Y-44473D01*
X58815Y-44466D01*
X58822Y-44459D01*
X58830Y-44455D01*
X58840Y-44452D01*
X58849Y-44451D01*
X58858Y-44451D01*
X58868Y-44454D01*
X58876Y-44458D01*
X58884Y-44464D01*
X58890Y-44472D01*
X58895Y-44480D01*
X58898Y-44489D01*
X58899Y-44499D01*
X58900Y-44500D01*
X58400Y-44500D02*
X58800Y-44500D01*
X58800Y-44500D02*
X58800Y-45100D01*
X58800Y-45100D02*
X58400Y-45100D01*
X58000Y-45100D02*
X57600Y-45100D01*
X57600Y-45100D02*
X57600Y-44500D01*
X57600Y-44500D02*
X58000Y-44500D01*
X58900Y-43700D02*
X58899Y-43709D01*
X58896Y-43719D01*
X58891Y-43727D01*
X58885Y-43735D01*
X58877Y-43741D01*
X58869Y-43746D01*
X58860Y-43748D01*
X58850Y-43749D01*
X58841Y-43749D01*
X58832Y-43746D01*
X58823Y-43741D01*
X58816Y-43735D01*
X58809Y-43728D01*
X58805Y-43719D01*
X58802Y-43710D01*
X58801Y-43700D01*
X58801Y-43691D01*
X58804Y-43682D01*
X58808Y-43673D01*
X58815Y-43666D01*
X58822Y-43659D01*
X58830Y-43655D01*
X58840Y-43652D01*
X58849Y-43651D01*
X58858Y-43651D01*
X58868Y-43654D01*
X58876Y-43658D01*
X58884Y-43664D01*
X58890Y-43672D01*
X58895Y-43680D01*
X58898Y-43689D01*
X58899Y-43699D01*
X58900Y-43700D01*
X58400Y-43700D02*
X58800Y-43700D01*
X58800Y-43700D02*
X58800Y-44300D01*
X58800Y-44300D02*
X58400Y-44300D01*
X58000Y-44300D02*
X57600Y-44300D01*
X57600Y-44300D02*
X57600Y-43700D01*
X57600Y-43700D02*
X58000Y-43700D01*
X57350Y-45850D02*
X57349Y-45859D01*
X57346Y-45869D01*
X57341Y-45877D01*
X57335Y-45885D01*
X57327Y-45891D01*
X57319Y-45896D01*
X57310Y-45898D01*
X57300Y-45899D01*
X57291Y-45899D01*
X57282Y-45896D01*
X57273Y-45891D01*
X57266Y-45885D01*
X57259Y-45878D01*
X57255Y-45869D01*
X57252Y-45860D01*
X57251Y-45850D01*
X57251Y-45841D01*
X57254Y-45832D01*
X57258Y-45823D01*
X57265Y-45816D01*
X57272Y-45809D01*
X57280Y-45805D01*
X57290Y-45802D01*
X57299Y-45801D01*
X57308Y-45801D01*
X57318Y-45804D01*
X57326Y-45808D01*
X57334Y-45814D01*
X57340Y-45822D01*
X57345Y-45830D01*
X57348Y-45839D01*
X57349Y-45849D01*
X57350Y-45850D01*
X57300Y-45400D02*
X57300Y-45800D01*
X57300Y-45800D02*
X56700Y-45800D01*
X56700Y-45800D02*
X56700Y-45400D01*
X56700Y-45000D02*
X56700Y-44600D01*
X56700Y-44600D02*
X57300Y-44600D01*
X57300Y-44600D02*
X57300Y-45000D01*
X59297Y-38328D02*
X59296Y-38337D01*
X59293Y-38347D01*
X59288Y-38355D01*
X59282Y-38363D01*
X59274Y-38369D01*
X59266Y-38374D01*
X59257Y-38376D01*
X59247Y-38377D01*
X59238Y-38377D01*
X59229Y-38374D01*
X59220Y-38369D01*
X59213Y-38363D01*
X59206Y-38356D01*
X59202Y-38347D01*
X59199Y-38338D01*
X59198Y-38328D01*
X59198Y-38319D01*
X59201Y-38310D01*
X59205Y-38301D01*
X59212Y-38294D01*
X59219Y-38287D01*
X59227Y-38283D01*
X59237Y-38280D01*
X59246Y-38279D01*
X59255Y-38279D01*
X59265Y-38282D01*
X59273Y-38286D01*
X59281Y-38292D01*
X59287Y-38300D01*
X59292Y-38308D01*
X59295Y-38317D01*
X59296Y-38327D01*
X59297Y-38328D01*
X58929Y-38646D02*
X59212Y-38364D01*
X59212Y-38364D02*
X59636Y-38788D01*
X59636Y-38788D02*
X59354Y-39071D01*
X59071Y-39354D02*
X58788Y-39636D01*
X58788Y-39636D02*
X58364Y-39212D01*
X58364Y-39212D02*
X58646Y-38929D01*
X59450Y-40950D02*
X59449Y-40959D01*
X59446Y-40969D01*
X59441Y-40977D01*
X59435Y-40985D01*
X59427Y-40991D01*
X59419Y-40996D01*
X59410Y-40998D01*
X59400Y-40999D01*
X59391Y-40999D01*
X59382Y-40996D01*
X59373Y-40991D01*
X59366Y-40985D01*
X59359Y-40978D01*
X59355Y-40969D01*
X59352Y-40960D01*
X59351Y-40950D01*
X59351Y-40941D01*
X59354Y-40932D01*
X59358Y-40923D01*
X59365Y-40916D01*
X59372Y-40909D01*
X59380Y-40905D01*
X59390Y-40902D01*
X59399Y-40901D01*
X59408Y-40901D01*
X59418Y-40904D01*
X59426Y-40908D01*
X59434Y-40914D01*
X59440Y-40922D01*
X59445Y-40930D01*
X59448Y-40939D01*
X59449Y-40949D01*
X59450Y-40950D01*
X58950Y-40950D02*
X59350Y-40950D01*
X59350Y-40950D02*
X59350Y-41550D01*
X59350Y-41550D02*
X58950Y-41550D01*
X58550Y-41550D02*
X58150Y-41550D01*
X58150Y-41550D02*
X58150Y-40950D01*
X58150Y-40950D02*
X58550Y-40950D01*
X55053Y-41922D02*
X55052Y-41931D01*
X55049Y-41941D01*
X55044Y-41949D01*
X55038Y-41957D01*
X55030Y-41963D01*
X55022Y-41968D01*
X55013Y-41970D01*
X55003Y-41971D01*
X54994Y-41971D01*
X54985Y-41968D01*
X54976Y-41963D01*
X54969Y-41957D01*
X54962Y-41950D01*
X54958Y-41941D01*
X54955Y-41932D01*
X54954Y-41922D01*
X54954Y-41913D01*
X54957Y-41904D01*
X54961Y-41895D01*
X54968Y-41888D01*
X54975Y-41881D01*
X54983Y-41877D01*
X54993Y-41874D01*
X55002Y-41873D01*
X55011Y-41873D01*
X55021Y-41876D01*
X55029Y-41880D01*
X55037Y-41886D01*
X55043Y-41894D01*
X55048Y-41902D01*
X55051Y-41911D01*
X55052Y-41921D01*
X55053Y-41922D01*
X55321Y-41604D02*
X55038Y-41886D01*
X55038Y-41886D02*
X54614Y-41462D01*
X54614Y-41462D02*
X54896Y-41179D01*
X55179Y-40896D02*
X55462Y-40614D01*
X55462Y-40614D02*
X55886Y-41038D01*
X55886Y-41038D02*
X55604Y-41321D01*
X58322Y-47678D02*
X58321Y-47687D01*
X58318Y-47697D01*
X58313Y-47705D01*
X58307Y-47713D01*
X58299Y-47719D01*
X58291Y-47724D01*
X58282Y-47726D01*
X58272Y-47727D01*
X58263Y-47727D01*
X58254Y-47724D01*
X58245Y-47719D01*
X58238Y-47713D01*
X58231Y-47706D01*
X58227Y-47697D01*
X58224Y-47688D01*
X58223Y-47678D01*
X58223Y-47669D01*
X58226Y-47660D01*
X58230Y-47651D01*
X58237Y-47644D01*
X58244Y-47637D01*
X58252Y-47633D01*
X58262Y-47630D01*
X58271Y-47629D01*
X58280Y-47629D01*
X58290Y-47632D01*
X58298Y-47636D01*
X58306Y-47642D01*
X58312Y-47650D01*
X58317Y-47658D01*
X58320Y-47667D01*
X58321Y-47677D01*
X58322Y-47678D01*
X57954Y-47996D02*
X58237Y-47714D01*
X58237Y-47714D02*
X58661Y-48138D01*
X58661Y-48138D02*
X58379Y-48421D01*
X58096Y-48704D02*
X57813Y-48986D01*
X57813Y-48986D02*
X57389Y-48562D01*
X57389Y-48562D02*
X57671Y-48279D01*
X59497Y-48828D02*
X59496Y-48837D01*
X59493Y-48847D01*
X59488Y-48855D01*
X59482Y-48863D01*
X59474Y-48869D01*
X59466Y-48874D01*
X59457Y-48876D01*
X59447Y-48877D01*
X59438Y-48877D01*
X59429Y-48874D01*
X59420Y-48869D01*
X59413Y-48863D01*
X59406Y-48856D01*
X59402Y-48847D01*
X59399Y-48838D01*
X59398Y-48828D01*
X59398Y-48819D01*
X59401Y-48810D01*
X59405Y-48801D01*
X59412Y-48794D01*
X59419Y-48787D01*
X59427Y-48783D01*
X59437Y-48780D01*
X59446Y-48779D01*
X59455Y-48779D01*
X59465Y-48782D01*
X59473Y-48786D01*
X59481Y-48792D01*
X59487Y-48800D01*
X59492Y-48808D01*
X59495Y-48817D01*
X59496Y-48827D01*
X59497Y-48828D01*
X59129Y-49146D02*
X59412Y-48864D01*
X59412Y-48864D02*
X59836Y-49288D01*
X59836Y-49288D02*
X59554Y-49571D01*
X59271Y-49854D02*
X58988Y-50136D01*
X58988Y-50136D02*
X58564Y-49712D01*
X58564Y-49712D02*
X58846Y-49429D01*
X69575Y-39250D02*
X69574Y-39259D01*
X69571Y-39269D01*
X69566Y-39277D01*
X69560Y-39285D01*
X69552Y-39291D01*
X69544Y-39296D01*
X69535Y-39298D01*
X69525Y-39299D01*
X69516Y-39299D01*
X69507Y-39296D01*
X69498Y-39291D01*
X69491Y-39285D01*
X69484Y-39278D01*
X69480Y-39269D01*
X69477Y-39260D01*
X69476Y-39250D01*
X69476Y-39241D01*
X69479Y-39232D01*
X69483Y-39223D01*
X69490Y-39216D01*
X69497Y-39209D01*
X69505Y-39205D01*
X69515Y-39202D01*
X69524Y-39201D01*
X69533Y-39201D01*
X69543Y-39204D01*
X69551Y-39208D01*
X69559Y-39214D01*
X69565Y-39222D01*
X69570Y-39230D01*
X69573Y-39239D01*
X69574Y-39249D01*
X69575Y-39250D01*
X69075Y-39250D02*
X69475Y-39250D01*
X69475Y-39250D02*
X69475Y-39850D01*
X69475Y-39850D02*
X69075Y-39850D01*
X68675Y-39850D02*
X68275Y-39850D01*
X68275Y-39850D02*
X68275Y-39250D01*
X68275Y-39250D02*
X68675Y-39250D01*
G54D12*
X65061Y-41268D02*
X65061Y-41268D01*
X65768Y-40561D02*
X65061Y-41268D01*
X65061Y-41268D02*
X65061Y-41268D01*
X65061Y-41268D02*
X62232Y-38439D01*
X62232Y-38439D02*
X62939Y-37732D01*
X62939Y-37732D02*
X65768Y-40561D01*
X65061Y-39854D02*
X64354Y-40561D01*
X65000Y-50000D02*
X65000Y-50000D01*
X65000Y-51000D02*
X65000Y-50000D01*
X65000Y-50000D02*
X65000Y-50000D01*
X65000Y-50000D02*
X69000Y-50000D01*
X69000Y-50000D02*
X69000Y-51000D01*
X69000Y-51000D02*
X65000Y-51000D01*
X66000Y-51000D02*
X66000Y-50000D01*
X58561Y-40104D02*
X57854Y-40811D01*
X57854Y-40811D02*
X56439Y-39396D01*
X56439Y-39396D02*
X57146Y-38689D01*
X57146Y-38689D02*
X58561Y-40104D01*
X68425Y-38925D02*
X68425Y-37925D01*
X68425Y-37925D02*
X70425Y-37925D01*
X70425Y-37925D02*
X70425Y-38925D01*
X70425Y-38925D02*
X68425Y-38925D01*
X57561Y-41104D02*
X56854Y-41811D01*
X56854Y-41811D02*
X55439Y-40396D01*
X55439Y-40396D02*
X56146Y-39689D01*
X56146Y-39689D02*
X57561Y-41104D01*
X57000Y-42300D02*
X57000Y-42700D01*
X57000Y-42700D02*
X57400Y-42700D01*
X57400Y-42700D02*
X57400Y-45900D01*
X57400Y-45900D02*
X56600Y-45900D01*
X56600Y-45900D02*
X56600Y-42700D01*
X56600Y-42700D02*
X57000Y-42700D01*
X57200Y-42700D02*
X57400Y-42900D01*
X57000Y-46300D02*
X57000Y-45900D01*
X71600Y-43100D02*
X71600Y-38100D01*
X71600Y-38100D02*
X73600Y-38100D01*
X73600Y-38100D02*
X73600Y-43100D01*
X73600Y-43100D02*
X71600Y-43100D01*
G54D14*
X73600Y-45100D02*
X73600Y-48100D01*
X71600Y-48100D02*
X71600Y-45100D01*
X71600Y-45100D02*
X73600Y-45100D01*
X73600Y-48100D02*
X71600Y-48100D01*
G54D15*
X70646Y-39668D02*
X70646Y-39796D01*
X70646Y-39796D02*
X70843Y-39796D01*
X70843Y-39668D02*
X70843Y-39796D01*
X70646Y-39668D02*
X70843Y-39668D01*
X70646Y-39423D02*
X70646Y-39482D01*
X70646Y-39482D02*
X70745Y-39482D01*
X70745Y-39423D02*
X70745Y-39482D01*
X70646Y-39423D02*
X70745Y-39423D01*
X70646Y-39618D02*
X70646Y-39677D01*
X70646Y-39677D02*
X70745Y-39677D01*
X70745Y-39618D02*
X70745Y-39677D01*
X70646Y-39618D02*
X70745Y-39618D01*
X70646Y-39472D02*
X70646Y-39628D01*
X70646Y-39628D02*
X70715Y-39628D01*
X70715Y-39472D02*
X70715Y-39628D01*
X70646Y-39472D02*
X70715Y-39472D01*
X70057Y-39668D02*
X70057Y-39796D01*
X70057Y-39796D02*
X70254Y-39796D01*
X70254Y-39668D02*
X70254Y-39796D01*
X70057Y-39668D02*
X70254Y-39668D01*
X70057Y-39304D02*
X70057Y-39432D01*
X70057Y-39432D02*
X70254Y-39432D01*
X70254Y-39304D02*
X70254Y-39432D01*
X70057Y-39304D02*
X70254Y-39304D01*
X70155Y-39618D02*
X70155Y-39677D01*
X70155Y-39677D02*
X70254Y-39677D01*
X70254Y-39618D02*
X70254Y-39677D01*
X70155Y-39618D02*
X70254Y-39618D01*
X70155Y-39423D02*
X70155Y-39482D01*
X70155Y-39482D02*
X70254Y-39482D01*
X70254Y-39423D02*
X70254Y-39482D01*
X70155Y-39423D02*
X70254Y-39423D01*
X70185Y-39472D02*
X70185Y-39628D01*
X70185Y-39628D02*
X70254Y-39628D01*
X70254Y-39472D02*
X70254Y-39628D01*
X70185Y-39472D02*
X70254Y-39472D01*
X70450Y-39511D02*
X70450Y-39589D01*
X70450Y-39589D02*
X70528Y-39589D01*
X70528Y-39511D02*
X70528Y-39589D01*
X70450Y-39511D02*
X70528Y-39511D01*
X70646Y-39314D02*
X70646Y-39432D01*
X70646Y-39432D02*
X70764Y-39432D01*
X70764Y-39314D02*
X70764Y-39432D01*
X70646Y-39314D02*
X70764Y-39314D01*
X70814Y-39304D02*
X70814Y-39393D01*
X70814Y-39393D02*
X70843Y-39393D01*
X70843Y-39304D02*
X70843Y-39393D01*
X70814Y-39304D02*
X70843Y-39304D01*
G54D16*
X70656Y-39776D02*
X70244Y-39776D01*
X70254Y-39324D02*
X70814Y-39324D01*
G54D17*
X70812Y-39373D02*
X70811Y-39378D01*
X70809Y-39383D01*
X70807Y-39388D01*
X70803Y-39392D01*
X70799Y-39396D01*
X70794Y-39398D01*
X70789Y-39400D01*
X70784Y-39400D01*
X70779Y-39400D01*
X70774Y-39398D01*
X70769Y-39396D01*
X70765Y-39393D01*
X70761Y-39388D01*
X70759Y-39384D01*
X70757Y-39378D01*
X70757Y-39373D01*
X70757Y-39368D01*
X70758Y-39363D01*
X70761Y-39358D01*
X70764Y-39354D01*
X70769Y-39351D01*
X70773Y-39348D01*
X70778Y-39346D01*
X70784Y-39346D01*
X70788Y-39346D01*
X70794Y-39347D01*
X70799Y-39350D01*
X70803Y-39353D01*
X70806Y-39357D01*
X70809Y-39362D01*
X70811Y-39367D01*
X70811Y-39373D01*
X70812Y-39373D01*
G54D16*
X70843Y-39413D02*
X70832Y-39414D01*
X70820Y-39416D01*
X70808Y-39418D01*
X70797Y-39422D01*
X70786Y-39426D01*
X70775Y-39432D01*
X70765Y-39438D01*
X70755Y-39446D01*
X70747Y-39454D01*
X70739Y-39462D01*
X70731Y-39472D01*
X70725Y-39482D01*
X70719Y-39493D01*
X70715Y-39504D01*
X70711Y-39515D01*
X70709Y-39527D01*
X70707Y-39539D01*
X70706Y-39550D01*
X70707Y-39561D01*
X70709Y-39573D01*
X70711Y-39585D01*
X70715Y-39596D01*
X70719Y-39607D01*
X70725Y-39618D01*
X70731Y-39628D01*
X70739Y-39638D01*
X70747Y-39646D01*
X70755Y-39654D01*
X70765Y-39662D01*
X70775Y-39668D01*
X70786Y-39674D01*
X70797Y-39678D01*
X70808Y-39682D01*
X70820Y-39684D01*
X70832Y-39686D01*
X70843Y-39687D01*
X70057Y-39687D02*
X70068Y-39686D01*
X70080Y-39684D01*
X70092Y-39682D01*
X70103Y-39678D01*
X70114Y-39674D01*
X70125Y-39668D01*
X70135Y-39662D01*
X70145Y-39654D01*
X70153Y-39646D01*
X70161Y-39638D01*
X70169Y-39628D01*
X70175Y-39618D01*
X70181Y-39607D01*
X70185Y-39596D01*
X70189Y-39585D01*
X70191Y-39573D01*
X70193Y-39561D01*
X70194Y-39550D01*
X70193Y-39539D01*
X70191Y-39527D01*
X70189Y-39515D01*
X70185Y-39504D01*
X70181Y-39493D01*
X70175Y-39482D01*
X70169Y-39472D01*
X70161Y-39462D01*
X70153Y-39454D01*
X70145Y-39446D01*
X70135Y-39438D01*
X70125Y-39432D01*
X70114Y-39426D01*
X70103Y-39422D01*
X70092Y-39418D01*
X70080Y-39416D01*
X70068Y-39414D01*
X70057Y-39413D01*
G54D18*
X61541Y-48027D02*
X59773Y-46259D01*
X60127Y-49441D02*
X58359Y-47673D01*
X58360Y-46260D02*
X58301Y-46324D01*
X58248Y-46393D01*
X58201Y-46467D01*
X58161Y-46544D01*
X58128Y-46625D01*
X58102Y-46708D01*
X58083Y-46793D01*
X58071Y-46879D01*
X58067Y-46966D01*
X58071Y-47053D01*
X58083Y-47139D01*
X58102Y-47224D01*
X58128Y-47307D01*
X58161Y-47388D01*
X58201Y-47465D01*
X58248Y-47539D01*
X58301Y-47608D01*
X58360Y-47672D01*
X59772Y-46260D02*
X59708Y-46201D01*
X59639Y-46148D01*
X59565Y-46101D01*
X59488Y-46061D01*
X59407Y-46028D01*
X59324Y-46002D01*
X59239Y-45983D01*
X59153Y-45971D01*
X59066Y-45967D01*
X58979Y-45971D01*
X58893Y-45983D01*
X58808Y-46002D01*
X58725Y-46028D01*
X58644Y-46061D01*
X58567Y-46101D01*
X58493Y-46148D01*
X58424Y-46201D01*
X58360Y-46260D01*
X60128Y-49440D02*
X60192Y-49499D01*
X60261Y-49552D01*
X60335Y-49599D01*
X60412Y-49639D01*
X60493Y-49672D01*
X60576Y-49698D01*
X60661Y-49717D01*
X60747Y-49729D01*
X60834Y-49733D01*
X60921Y-49729D01*
X61007Y-49717D01*
X61092Y-49698D01*
X61175Y-49672D01*
X61256Y-49639D01*
X61333Y-49599D01*
X61407Y-49552D01*
X61476Y-49499D01*
X61540Y-49440D01*
X61540Y-49440D02*
X61599Y-49376D01*
X61652Y-49307D01*
X61699Y-49233D01*
X61739Y-49156D01*
X61772Y-49075D01*
X61798Y-48992D01*
X61817Y-48907D01*
X61829Y-48821D01*
X61833Y-48734D01*
X61829Y-48647D01*
X61817Y-48561D01*
X61798Y-48476D01*
X61772Y-48393D01*
X61739Y-48312D01*
X61699Y-48235D01*
X61652Y-48161D01*
X61599Y-48092D01*
X61540Y-48028D01*
G54D11*
X51852Y-42106D02*
X47915Y-42106D01*
X47915Y-42106D02*
X47718Y-42303D01*
X47718Y-42303D02*
X47718Y-46339D01*
X47718Y-46339D02*
X48013Y-46634D01*
X48013Y-46634D02*
X52048Y-46634D01*
G54D12*
X64450Y-42450D02*
X64450Y-41450D01*
X64450Y-41450D02*
X67450Y-41450D01*
X67450Y-41450D02*
X67450Y-42450D01*
X67450Y-42450D02*
X64450Y-42450D01*
X65450Y-41450D02*
X65450Y-42450D01*
X67011Y-41268D02*
X67011Y-41268D01*
X67718Y-40561D02*
X67011Y-41268D01*
X67011Y-41268D02*
X67011Y-41268D01*
X67011Y-41268D02*
X64182Y-38439D01*
X64182Y-38439D02*
X64889Y-37732D01*
X64889Y-37732D02*
X67718Y-40561D01*
X67011Y-39854D02*
X66304Y-40561D01*
X54189Y-46396D02*
X54896Y-45689D01*
X54896Y-45689D02*
X56311Y-47104D01*
X56311Y-47104D02*
X55604Y-47811D01*
X55604Y-47811D02*
X54189Y-46396D01*
G54D13*
X55150Y-42400D02*
X54250Y-42400D01*
X54250Y-42400D02*
X54250Y-43050D01*
X55150Y-43750D02*
X55150Y-44400D01*
X55150Y-44400D02*
X54250Y-44400D01*
X54250Y-44400D02*
X54250Y-43750D01*
X55150Y-43050D02*
X55150Y-42400D01*
X56350Y-43100D02*
X55450Y-43100D01*
X55450Y-43100D02*
X55450Y-43750D01*
X56350Y-44450D02*
X56350Y-45100D01*
X56350Y-45100D02*
X55450Y-45100D01*
X55450Y-45100D02*
X55450Y-44450D01*
X56350Y-43750D02*
X56350Y-43100D01*
X66300Y-47000D02*
X66299Y-47009D01*
X66296Y-47019D01*
X66291Y-47027D01*
X66285Y-47035D01*
X66277Y-47041D01*
X66269Y-47046D01*
X66260Y-47048D01*
X66250Y-47049D01*
X66241Y-47049D01*
X66232Y-47046D01*
X66223Y-47041D01*
X66216Y-47035D01*
X66209Y-47028D01*
X66205Y-47019D01*
X66202Y-47010D01*
X66201Y-47000D01*
X66201Y-46991D01*
X66204Y-46982D01*
X66208Y-46973D01*
X66215Y-46966D01*
X66222Y-46959D01*
X66230Y-46955D01*
X66240Y-46952D01*
X66249Y-46951D01*
X66258Y-46951D01*
X66268Y-46954D01*
X66276Y-46958D01*
X66284Y-46964D01*
X66290Y-46972D01*
X66295Y-46980D01*
X66298Y-46989D01*
X66299Y-46999D01*
X66300Y-47000D01*
X66700Y-47000D02*
X66300Y-47000D01*
X66300Y-47000D02*
X66300Y-46400D01*
X66300Y-46400D02*
X66700Y-46400D01*
X67100Y-46400D02*
X67500Y-46400D01*
X67500Y-46400D02*
X67500Y-47000D01*
X67500Y-47000D02*
X67100Y-47000D01*
X66300Y-46200D02*
X66299Y-46209D01*
X66296Y-46219D01*
X66291Y-46227D01*
X66285Y-46235D01*
X66277Y-46241D01*
X66269Y-46246D01*
X66260Y-46248D01*
X66250Y-46249D01*
X66241Y-46249D01*
X66232Y-46246D01*
X66223Y-46241D01*
X66216Y-46235D01*
X66209Y-46228D01*
X66205Y-46219D01*
X66202Y-46210D01*
X66201Y-46200D01*
X66201Y-46191D01*
X66204Y-46182D01*
X66208Y-46173D01*
X66215Y-46166D01*
X66222Y-46159D01*
X66230Y-46155D01*
X66240Y-46152D01*
X66249Y-46151D01*
X66258Y-46151D01*
X66268Y-46154D01*
X66276Y-46158D01*
X66284Y-46164D01*
X66290Y-46172D01*
X66295Y-46180D01*
X66298Y-46189D01*
X66299Y-46199D01*
X66300Y-46200D01*
X66700Y-46200D02*
X66300Y-46200D01*
X66300Y-46200D02*
X66300Y-45600D01*
X66300Y-45600D02*
X66700Y-45600D01*
X67100Y-45600D02*
X67500Y-45600D01*
X67500Y-45600D02*
X67500Y-46200D01*
X67500Y-46200D02*
X67100Y-46200D01*
X67600Y-47200D02*
X67599Y-47209D01*
X67596Y-47219D01*
X67591Y-47227D01*
X67585Y-47235D01*
X67577Y-47241D01*
X67569Y-47246D01*
X67560Y-47248D01*
X67550Y-47249D01*
X67541Y-47249D01*
X67532Y-47246D01*
X67523Y-47241D01*
X67516Y-47235D01*
X67509Y-47228D01*
X67505Y-47219D01*
X67502Y-47210D01*
X67501Y-47200D01*
X67501Y-47191D01*
X67504Y-47182D01*
X67508Y-47173D01*
X67515Y-47166D01*
X67522Y-47159D01*
X67530Y-47155D01*
X67540Y-47152D01*
X67549Y-47151D01*
X67558Y-47151D01*
X67568Y-47154D01*
X67576Y-47158D01*
X67584Y-47164D01*
X67590Y-47172D01*
X67595Y-47180D01*
X67598Y-47189D01*
X67599Y-47199D01*
X67600Y-47200D01*
X67100Y-47200D02*
X67500Y-47200D01*
X67500Y-47200D02*
X67500Y-47800D01*
X67500Y-47800D02*
X67100Y-47800D01*
X66700Y-47800D02*
X66300Y-47800D01*
X66300Y-47800D02*
X66300Y-47200D01*
X66300Y-47200D02*
X66700Y-47200D01*
X67600Y-44800D02*
X67599Y-44809D01*
X67596Y-44819D01*
X67591Y-44827D01*
X67585Y-44835D01*
X67577Y-44841D01*
X67569Y-44846D01*
X67560Y-44848D01*
X67550Y-44849D01*
X67541Y-44849D01*
X67532Y-44846D01*
X67523Y-44841D01*
X67516Y-44835D01*
X67509Y-44828D01*
X67505Y-44819D01*
X67502Y-44810D01*
X67501Y-44800D01*
X67501Y-44791D01*
X67504Y-44782D01*
X67508Y-44773D01*
X67515Y-44766D01*
X67522Y-44759D01*
X67530Y-44755D01*
X67540Y-44752D01*
X67549Y-44751D01*
X67558Y-44751D01*
X67568Y-44754D01*
X67576Y-44758D01*
X67584Y-44764D01*
X67590Y-44772D01*
X67595Y-44780D01*
X67598Y-44789D01*
X67599Y-44799D01*
X67600Y-44800D01*
X67100Y-44800D02*
X67500Y-44800D01*
X67500Y-44800D02*
X67500Y-45400D01*
X67500Y-45400D02*
X67100Y-45400D01*
X66700Y-45400D02*
X66300Y-45400D01*
X66300Y-45400D02*
X66300Y-44800D01*
X66300Y-44800D02*
X66700Y-44800D01*
G54D12*
X69500Y-50000D02*
X69500Y-50000D01*
X69500Y-51000D02*
X69500Y-50000D01*
X69500Y-50000D02*
X69500Y-50000D01*
X69500Y-50000D02*
X73500Y-50000D01*
X73500Y-50000D02*
X73500Y-51000D01*
X73500Y-51000D02*
X69500Y-51000D01*
X70500Y-51000D02*
X70500Y-50000D01*
X59500Y-51000D02*
X59500Y-50000D01*
X59500Y-50000D02*
X64500Y-50000D01*
X64500Y-50000D02*
X64500Y-51000D01*
X64500Y-51000D02*
X59500Y-51000D01*
X60500Y-51000D02*
X60500Y-50000D01*
M02*
