G04 (created by PCBNEW-RS274X (2012-jan-04)-stable) date Пт. 17 авг. 2012 15:46:30*
G01*
G70*
G90*
%MOIN*%
G04 Gerber Fmt 3.4, Leading zero omitted, Abs format*
%FSLAX34Y34*%
G04 APERTURE LIST*
%ADD10C,0.006000*%
%ADD11C,0.015000*%
%ADD12C,0.012000*%
%ADD13C,0.009900*%
%ADD14C,0.006900*%
%ADD15C,0.003900*%
%ADD16C,0.008000*%
%ADD17C,0.005000*%
G04 APERTURE END LIST*
G54D10*
G54D11*
X50075Y-46175D02*
X50125Y-46175D01*
X48300Y-44400D02*
X50075Y-46175D01*
X48375Y-44400D02*
X48300Y-44400D01*
X50175Y-42600D02*
X48375Y-44400D01*
X49775Y-45800D02*
X49775Y-45750D01*
X53075Y-45800D02*
X49775Y-45800D01*
X49725Y-44725D02*
X49725Y-44750D01*
X52775Y-44725D02*
X49725Y-44725D01*
X49700Y-44025D02*
X49700Y-44050D01*
X52825Y-44025D02*
X49700Y-44025D01*
X52825Y-43025D02*
X49700Y-43025D01*
X57825Y-42275D02*
X57225Y-41675D01*
X58200Y-40650D02*
X58200Y-40600D01*
X58550Y-41000D02*
X58200Y-40650D01*
G54D12*
X59203Y-41899D02*
X58832Y-41899D01*
X59032Y-42204D01*
X58946Y-42204D01*
X58889Y-42242D01*
X58860Y-42280D01*
X58832Y-42356D01*
X58832Y-42546D01*
X58860Y-42623D01*
X58889Y-42661D01*
X58946Y-42699D01*
X59118Y-42699D01*
X59175Y-42661D01*
X59203Y-42623D01*
X58575Y-42623D02*
X58547Y-42661D01*
X58575Y-42699D01*
X58604Y-42661D01*
X58575Y-42623D01*
X58575Y-42699D01*
X58032Y-41899D02*
X58146Y-41899D01*
X58203Y-41937D01*
X58232Y-41975D01*
X58289Y-42089D01*
X58318Y-42242D01*
X58318Y-42546D01*
X58289Y-42623D01*
X58261Y-42661D01*
X58203Y-42699D01*
X58089Y-42699D01*
X58032Y-42661D01*
X58003Y-42623D01*
X57975Y-42546D01*
X57975Y-42356D01*
X58003Y-42280D01*
X58032Y-42242D01*
X58089Y-42204D01*
X58203Y-42204D01*
X58261Y-42242D01*
X58289Y-42280D01*
X58318Y-42356D01*
X59728Y-41099D02*
X59357Y-41099D01*
X59557Y-41404D01*
X59471Y-41404D01*
X59414Y-41442D01*
X59385Y-41480D01*
X59357Y-41556D01*
X59357Y-41746D01*
X59385Y-41823D01*
X59414Y-41861D01*
X59471Y-41899D01*
X59643Y-41899D01*
X59700Y-41861D01*
X59728Y-41823D01*
X59100Y-41823D02*
X59072Y-41861D01*
X59100Y-41899D01*
X59129Y-41861D01*
X59100Y-41823D01*
X59100Y-41899D01*
X58871Y-41099D02*
X58500Y-41099D01*
X58700Y-41404D01*
X58614Y-41404D01*
X58557Y-41442D01*
X58528Y-41480D01*
X58500Y-41556D01*
X58500Y-41746D01*
X58528Y-41823D01*
X58557Y-41861D01*
X58614Y-41899D01*
X58786Y-41899D01*
X58843Y-41861D01*
X58871Y-41823D01*
G54D11*
X66250Y-38300D02*
X66275Y-38300D01*
X65825Y-38725D02*
X66250Y-38300D01*
X66400Y-39350D02*
X66675Y-39075D01*
G54D12*
X68303Y-39461D02*
X68217Y-39499D01*
X68074Y-39499D01*
X68017Y-39461D01*
X67988Y-39423D01*
X67960Y-39346D01*
X67960Y-39270D01*
X67988Y-39194D01*
X68017Y-39156D01*
X68074Y-39118D01*
X68188Y-39080D01*
X68246Y-39042D01*
X68274Y-39004D01*
X68303Y-38927D01*
X68303Y-38851D01*
X68274Y-38775D01*
X68246Y-38737D01*
X68188Y-38699D01*
X68046Y-38699D01*
X67960Y-38737D01*
X67703Y-39499D02*
X67703Y-38699D01*
X67560Y-38699D01*
X67475Y-38737D01*
X67417Y-38813D01*
X67389Y-38889D01*
X67360Y-39042D01*
X67360Y-39156D01*
X67389Y-39308D01*
X67417Y-39385D01*
X67475Y-39461D01*
X67560Y-39499D01*
X67703Y-39499D01*
X67132Y-39270D02*
X66846Y-39270D01*
X67189Y-39499D02*
X66989Y-38699D01*
X66789Y-39499D01*
X67714Y-38411D02*
X67628Y-38449D01*
X67485Y-38449D01*
X67428Y-38411D01*
X67399Y-38373D01*
X67371Y-38296D01*
X67371Y-38220D01*
X67399Y-38144D01*
X67428Y-38106D01*
X67485Y-38068D01*
X67599Y-38030D01*
X67657Y-37992D01*
X67685Y-37954D01*
X67714Y-37877D01*
X67714Y-37801D01*
X67685Y-37725D01*
X67657Y-37687D01*
X67599Y-37649D01*
X67457Y-37649D01*
X67371Y-37687D01*
X66771Y-38373D02*
X66800Y-38411D01*
X66886Y-38449D01*
X66943Y-38449D01*
X67028Y-38411D01*
X67086Y-38335D01*
X67114Y-38258D01*
X67143Y-38106D01*
X67143Y-37992D01*
X67114Y-37839D01*
X67086Y-37763D01*
X67028Y-37687D01*
X66943Y-37649D01*
X66886Y-37649D01*
X66800Y-37687D01*
X66771Y-37725D01*
X66228Y-38449D02*
X66514Y-38449D01*
X66514Y-37649D01*
G54D11*
X64400Y-39300D02*
X64250Y-39150D01*
X64400Y-39300D02*
X64550Y-39150D01*
X64400Y-38800D02*
X64400Y-39300D01*
X63775Y-37975D02*
X63950Y-38150D01*
X63775Y-37975D02*
X63600Y-38150D01*
X63775Y-38625D02*
X63775Y-37975D01*
G54D13*
X68388Y-48820D02*
X68388Y-48151D01*
X68219Y-48820D02*
X68219Y-48470D01*
X68238Y-48406D01*
X68276Y-48374D01*
X68332Y-48374D01*
X68369Y-48406D01*
X68388Y-48438D01*
X68088Y-48374D02*
X67938Y-48374D01*
X68032Y-48151D02*
X68032Y-48725D01*
X68013Y-48788D01*
X67976Y-48820D01*
X67938Y-48820D01*
X67863Y-48374D02*
X67713Y-48374D01*
X67807Y-48151D02*
X67807Y-48725D01*
X67788Y-48788D01*
X67751Y-48820D01*
X67713Y-48820D01*
X67582Y-48374D02*
X67582Y-49043D01*
X67582Y-48406D02*
X67545Y-48374D01*
X67470Y-48374D01*
X67432Y-48406D01*
X67413Y-48438D01*
X67395Y-48502D01*
X67395Y-48693D01*
X67413Y-48757D01*
X67432Y-48788D01*
X67470Y-48820D01*
X67545Y-48820D01*
X67582Y-48788D01*
X67226Y-48757D02*
X67207Y-48788D01*
X67226Y-48820D01*
X67245Y-48788D01*
X67226Y-48757D01*
X67226Y-48820D01*
X67226Y-48406D02*
X67207Y-48438D01*
X67226Y-48470D01*
X67245Y-48438D01*
X67226Y-48406D01*
X67226Y-48470D01*
X66757Y-48119D02*
X67094Y-48980D01*
X66344Y-48119D02*
X66681Y-48980D01*
X66212Y-48374D02*
X66212Y-48820D01*
X66212Y-48438D02*
X66193Y-48406D01*
X66156Y-48374D01*
X66100Y-48374D01*
X66062Y-48406D01*
X66043Y-48470D01*
X66043Y-48820D01*
X65687Y-48788D02*
X65725Y-48820D01*
X65800Y-48820D01*
X65837Y-48788D01*
X65856Y-48757D01*
X65875Y-48693D01*
X65875Y-48502D01*
X65856Y-48438D01*
X65837Y-48406D01*
X65800Y-48374D01*
X65725Y-48374D01*
X65687Y-48406D01*
X65518Y-48820D02*
X65518Y-48374D01*
X65518Y-48502D02*
X65499Y-48438D01*
X65481Y-48406D01*
X65443Y-48374D01*
X65406Y-48374D01*
X65274Y-48820D02*
X65274Y-48374D01*
X65274Y-48438D02*
X65255Y-48406D01*
X65218Y-48374D01*
X65162Y-48374D01*
X65124Y-48406D01*
X65105Y-48470D01*
X65105Y-48820D01*
X65105Y-48470D02*
X65087Y-48406D01*
X65049Y-48374D01*
X64993Y-48374D01*
X64955Y-48406D01*
X64936Y-48470D01*
X64936Y-48820D01*
X64749Y-48374D02*
X64749Y-48820D01*
X64749Y-48438D02*
X64730Y-48406D01*
X64693Y-48374D01*
X64637Y-48374D01*
X64599Y-48406D01*
X64580Y-48470D01*
X64580Y-48820D01*
X64449Y-48374D02*
X64299Y-48374D01*
X64393Y-48151D02*
X64393Y-48725D01*
X64374Y-48788D01*
X64337Y-48820D01*
X64299Y-48820D01*
X64168Y-48757D02*
X64149Y-48788D01*
X64168Y-48820D01*
X64187Y-48788D01*
X64168Y-48757D01*
X64168Y-48820D01*
X63924Y-48820D02*
X63961Y-48788D01*
X63980Y-48757D01*
X63999Y-48693D01*
X63999Y-48502D01*
X63980Y-48438D01*
X63961Y-48406D01*
X63924Y-48374D01*
X63868Y-48374D01*
X63830Y-48406D01*
X63811Y-48438D01*
X63793Y-48502D01*
X63793Y-48693D01*
X63811Y-48757D01*
X63830Y-48788D01*
X63868Y-48820D01*
X63924Y-48820D01*
X63624Y-48820D02*
X63624Y-48374D01*
X63624Y-48502D02*
X63605Y-48438D01*
X63587Y-48406D01*
X63549Y-48374D01*
X63512Y-48374D01*
X63211Y-48374D02*
X63211Y-48916D01*
X63230Y-48980D01*
X63249Y-49011D01*
X63286Y-49043D01*
X63343Y-49043D01*
X63380Y-49011D01*
X63211Y-48788D02*
X63249Y-48820D01*
X63324Y-48820D01*
X63361Y-48788D01*
X63380Y-48757D01*
X63399Y-48693D01*
X63399Y-48502D01*
X63380Y-48438D01*
X63361Y-48406D01*
X63324Y-48374D01*
X63249Y-48374D01*
X63211Y-48406D01*
G54D14*
X71358Y-42348D02*
X71358Y-41797D01*
X71266Y-42190D01*
X71174Y-41797D01*
X71174Y-42348D01*
X70991Y-41797D02*
X70938Y-41797D01*
X70912Y-41823D01*
X70886Y-41875D01*
X70872Y-41980D01*
X70872Y-42164D01*
X70886Y-42269D01*
X70912Y-42321D01*
X70938Y-42348D01*
X70991Y-42348D01*
X71017Y-42321D01*
X71043Y-42269D01*
X71056Y-42164D01*
X71056Y-41980D01*
X71043Y-41875D01*
X71017Y-41823D01*
X70991Y-41797D01*
X70767Y-42321D02*
X70728Y-42348D01*
X70662Y-42348D01*
X70636Y-42321D01*
X70623Y-42295D01*
X70610Y-42243D01*
X70610Y-42190D01*
X70623Y-42138D01*
X70636Y-42111D01*
X70662Y-42085D01*
X70715Y-42059D01*
X70741Y-42033D01*
X70754Y-42006D01*
X70767Y-41954D01*
X70767Y-41901D01*
X70754Y-41849D01*
X70741Y-41823D01*
X70715Y-41797D01*
X70649Y-41797D01*
X70610Y-41823D01*
X70491Y-42348D02*
X70491Y-41797D01*
G54D12*
X70251Y-41049D02*
X70251Y-41239D01*
X70108Y-41163D02*
X70251Y-41239D01*
X70393Y-41163D01*
X70165Y-41392D02*
X70251Y-41239D01*
X70336Y-41392D01*
G54D14*
X71001Y-40748D02*
X71093Y-40485D01*
X71158Y-40748D02*
X71158Y-40197D01*
X71053Y-40197D01*
X71027Y-40223D01*
X71014Y-40249D01*
X71001Y-40301D01*
X71001Y-40380D01*
X71014Y-40433D01*
X71027Y-40459D01*
X71053Y-40485D01*
X71158Y-40485D01*
X70895Y-40721D02*
X70856Y-40748D01*
X70790Y-40748D01*
X70764Y-40721D01*
X70751Y-40695D01*
X70738Y-40643D01*
X70738Y-40590D01*
X70751Y-40538D01*
X70764Y-40511D01*
X70790Y-40485D01*
X70843Y-40459D01*
X70869Y-40433D01*
X70882Y-40406D01*
X70895Y-40354D01*
X70895Y-40301D01*
X70882Y-40249D01*
X70869Y-40223D01*
X70843Y-40197D01*
X70777Y-40197D01*
X70738Y-40223D01*
X70659Y-40197D02*
X70501Y-40197D01*
X70580Y-40748D02*
X70580Y-40197D01*
X71329Y-39796D02*
X71290Y-39823D01*
X71224Y-39823D01*
X71198Y-39796D01*
X71185Y-39770D01*
X71172Y-39718D01*
X71172Y-39665D01*
X71185Y-39613D01*
X71198Y-39586D01*
X71224Y-39560D01*
X71277Y-39534D01*
X71303Y-39508D01*
X71316Y-39481D01*
X71329Y-39429D01*
X71329Y-39376D01*
X71316Y-39324D01*
X71303Y-39298D01*
X71277Y-39272D01*
X71211Y-39272D01*
X71172Y-39298D01*
X70896Y-39770D02*
X70909Y-39796D01*
X70948Y-39823D01*
X70974Y-39823D01*
X71014Y-39796D01*
X71040Y-39744D01*
X71053Y-39691D01*
X71066Y-39586D01*
X71066Y-39508D01*
X71053Y-39403D01*
X71040Y-39350D01*
X71014Y-39298D01*
X70974Y-39272D01*
X70948Y-39272D01*
X70909Y-39298D01*
X70896Y-39324D01*
X70777Y-39823D02*
X70777Y-39272D01*
X70620Y-39823D02*
X70738Y-39508D01*
X70620Y-39272D02*
X70777Y-39586D01*
X71433Y-38923D02*
X71433Y-38372D01*
X71341Y-38765D01*
X71249Y-38372D01*
X71249Y-38923D01*
X71118Y-38923D02*
X71118Y-38372D01*
X71000Y-38896D02*
X70961Y-38923D01*
X70895Y-38923D01*
X70869Y-38896D01*
X70856Y-38870D01*
X70843Y-38818D01*
X70843Y-38765D01*
X70856Y-38713D01*
X70869Y-38686D01*
X70895Y-38660D01*
X70948Y-38634D01*
X70974Y-38608D01*
X70987Y-38581D01*
X71000Y-38529D01*
X71000Y-38476D01*
X70987Y-38424D01*
X70974Y-38398D01*
X70948Y-38372D01*
X70882Y-38372D01*
X70843Y-38398D01*
X70672Y-38372D02*
X70619Y-38372D01*
X70593Y-38398D01*
X70567Y-38450D01*
X70553Y-38555D01*
X70553Y-38739D01*
X70567Y-38844D01*
X70593Y-38896D01*
X70619Y-38923D01*
X70672Y-38923D01*
X70698Y-38896D01*
X70724Y-38844D01*
X70737Y-38739D01*
X70737Y-38555D01*
X70724Y-38450D01*
X70698Y-38398D01*
X70672Y-38372D01*
G54D15*
X69453Y-38917D02*
X69479Y-38894D01*
X69518Y-38894D01*
X69558Y-38917D01*
X69584Y-38961D01*
X69597Y-39006D01*
X69610Y-39096D01*
X69610Y-39164D01*
X69597Y-39254D01*
X69584Y-39299D01*
X69558Y-39344D01*
X69518Y-39366D01*
X69492Y-39366D01*
X69453Y-39344D01*
X69440Y-39321D01*
X69440Y-39164D01*
X69492Y-39164D01*
X69453Y-39616D02*
X69479Y-39593D01*
X69518Y-39593D01*
X69558Y-39616D01*
X69584Y-39660D01*
X69597Y-39705D01*
X69610Y-39795D01*
X69610Y-39863D01*
X69597Y-39953D01*
X69584Y-39998D01*
X69558Y-40043D01*
X69518Y-40065D01*
X69492Y-40065D01*
X69453Y-40043D01*
X69440Y-40020D01*
X69440Y-39863D01*
X69492Y-39863D01*
X69453Y-40315D02*
X69479Y-40292D01*
X69518Y-40292D01*
X69558Y-40315D01*
X69584Y-40359D01*
X69597Y-40404D01*
X69610Y-40494D01*
X69610Y-40562D01*
X69597Y-40652D01*
X69584Y-40697D01*
X69558Y-40742D01*
X69518Y-40764D01*
X69492Y-40764D01*
X69453Y-40742D01*
X69440Y-40719D01*
X69440Y-40562D01*
X69492Y-40562D01*
X69453Y-41014D02*
X69479Y-40991D01*
X69518Y-40991D01*
X69558Y-41014D01*
X69584Y-41058D01*
X69597Y-41103D01*
X69610Y-41193D01*
X69610Y-41261D01*
X69597Y-41351D01*
X69584Y-41396D01*
X69558Y-41441D01*
X69518Y-41463D01*
X69492Y-41463D01*
X69453Y-41441D01*
X69440Y-41418D01*
X69440Y-41261D01*
X69492Y-41261D01*
X69617Y-41690D02*
X69525Y-42162D01*
X69433Y-41690D01*
G54D16*
X57350Y-42850D02*
X58550Y-42850D01*
X58550Y-42850D02*
X58550Y-45650D01*
X58550Y-45650D02*
X57350Y-45650D01*
X56150Y-42850D02*
X55850Y-42850D01*
X55850Y-42850D02*
X54950Y-43450D01*
X54950Y-43450D02*
X54950Y-45050D01*
X54950Y-45050D02*
X55850Y-45650D01*
X55850Y-45650D02*
X56150Y-45650D01*
G54D17*
X60928Y-40497D02*
X60927Y-40506D01*
X60924Y-40516D01*
X60919Y-40524D01*
X60913Y-40532D01*
X60905Y-40538D01*
X60897Y-40543D01*
X60888Y-40545D01*
X60878Y-40546D01*
X60869Y-40546D01*
X60860Y-40543D01*
X60851Y-40538D01*
X60844Y-40532D01*
X60837Y-40525D01*
X60833Y-40516D01*
X60830Y-40507D01*
X60829Y-40497D01*
X60829Y-40488D01*
X60832Y-40479D01*
X60836Y-40470D01*
X60843Y-40463D01*
X60850Y-40456D01*
X60858Y-40452D01*
X60868Y-40449D01*
X60877Y-40448D01*
X60886Y-40448D01*
X60896Y-40451D01*
X60904Y-40455D01*
X60912Y-40461D01*
X60918Y-40469D01*
X60923Y-40477D01*
X60926Y-40486D01*
X60927Y-40496D01*
X60928Y-40497D01*
X61196Y-40179D02*
X60914Y-40462D01*
X60914Y-40462D02*
X61338Y-40886D01*
X61338Y-40886D02*
X61621Y-40604D01*
X61904Y-40321D02*
X62186Y-40038D01*
X62186Y-40038D02*
X61762Y-39614D01*
X61762Y-39614D02*
X61479Y-39896D01*
X60303Y-39897D02*
X60302Y-39906D01*
X60299Y-39916D01*
X60294Y-39924D01*
X60288Y-39932D01*
X60280Y-39938D01*
X60272Y-39943D01*
X60263Y-39945D01*
X60253Y-39946D01*
X60244Y-39946D01*
X60235Y-39943D01*
X60226Y-39938D01*
X60219Y-39932D01*
X60212Y-39925D01*
X60208Y-39916D01*
X60205Y-39907D01*
X60204Y-39897D01*
X60204Y-39888D01*
X60207Y-39879D01*
X60211Y-39870D01*
X60218Y-39863D01*
X60225Y-39856D01*
X60233Y-39852D01*
X60243Y-39849D01*
X60252Y-39848D01*
X60261Y-39848D01*
X60271Y-39851D01*
X60279Y-39855D01*
X60287Y-39861D01*
X60293Y-39869D01*
X60298Y-39877D01*
X60301Y-39886D01*
X60302Y-39896D01*
X60303Y-39897D01*
X60571Y-39579D02*
X60289Y-39862D01*
X60289Y-39862D02*
X60713Y-40286D01*
X60713Y-40286D02*
X60996Y-40004D01*
X61279Y-39721D02*
X61561Y-39438D01*
X61561Y-39438D02*
X61137Y-39014D01*
X61137Y-39014D02*
X60854Y-39296D01*
X61400Y-42600D02*
X61399Y-42609D01*
X61396Y-42619D01*
X61391Y-42627D01*
X61385Y-42635D01*
X61377Y-42641D01*
X61369Y-42646D01*
X61360Y-42648D01*
X61350Y-42649D01*
X61341Y-42649D01*
X61332Y-42646D01*
X61323Y-42641D01*
X61316Y-42635D01*
X61309Y-42628D01*
X61305Y-42619D01*
X61302Y-42610D01*
X61301Y-42600D01*
X61301Y-42591D01*
X61304Y-42582D01*
X61308Y-42573D01*
X61315Y-42566D01*
X61322Y-42559D01*
X61330Y-42555D01*
X61340Y-42552D01*
X61349Y-42551D01*
X61358Y-42551D01*
X61368Y-42554D01*
X61376Y-42558D01*
X61384Y-42564D01*
X61390Y-42572D01*
X61395Y-42580D01*
X61398Y-42589D01*
X61399Y-42599D01*
X61400Y-42600D01*
X61800Y-42600D02*
X61400Y-42600D01*
X61400Y-42600D02*
X61400Y-43200D01*
X61400Y-43200D02*
X61800Y-43200D01*
X62200Y-43200D02*
X62600Y-43200D01*
X62600Y-43200D02*
X62600Y-42600D01*
X62600Y-42600D02*
X62200Y-42600D01*
X58750Y-45650D02*
X58749Y-45659D01*
X58746Y-45669D01*
X58741Y-45677D01*
X58735Y-45685D01*
X58727Y-45691D01*
X58719Y-45696D01*
X58710Y-45698D01*
X58700Y-45699D01*
X58691Y-45699D01*
X58682Y-45696D01*
X58673Y-45691D01*
X58666Y-45685D01*
X58659Y-45678D01*
X58655Y-45669D01*
X58652Y-45660D01*
X58651Y-45650D01*
X58651Y-45641D01*
X58654Y-45632D01*
X58658Y-45623D01*
X58665Y-45616D01*
X58672Y-45609D01*
X58680Y-45605D01*
X58690Y-45602D01*
X58699Y-45601D01*
X58708Y-45601D01*
X58718Y-45604D01*
X58726Y-45608D01*
X58734Y-45614D01*
X58740Y-45622D01*
X58745Y-45630D01*
X58748Y-45639D01*
X58749Y-45649D01*
X58750Y-45650D01*
X58700Y-45200D02*
X58700Y-45600D01*
X58700Y-45600D02*
X59300Y-45600D01*
X59300Y-45600D02*
X59300Y-45200D01*
X59300Y-44800D02*
X59300Y-44400D01*
X59300Y-44400D02*
X58700Y-44400D01*
X58700Y-44400D02*
X58700Y-44800D01*
X60725Y-44900D02*
X60724Y-44909D01*
X60721Y-44919D01*
X60716Y-44927D01*
X60710Y-44935D01*
X60702Y-44941D01*
X60694Y-44946D01*
X60685Y-44948D01*
X60675Y-44949D01*
X60666Y-44949D01*
X60657Y-44946D01*
X60648Y-44941D01*
X60641Y-44935D01*
X60634Y-44928D01*
X60630Y-44919D01*
X60627Y-44910D01*
X60626Y-44900D01*
X60626Y-44891D01*
X60629Y-44882D01*
X60633Y-44873D01*
X60640Y-44866D01*
X60647Y-44859D01*
X60655Y-44855D01*
X60665Y-44852D01*
X60674Y-44851D01*
X60683Y-44851D01*
X60693Y-44854D01*
X60701Y-44858D01*
X60709Y-44864D01*
X60715Y-44872D01*
X60720Y-44880D01*
X60723Y-44889D01*
X60724Y-44899D01*
X60725Y-44900D01*
X60225Y-44900D02*
X60625Y-44900D01*
X60625Y-44900D02*
X60625Y-44300D01*
X60625Y-44300D02*
X60225Y-44300D01*
X59825Y-44300D02*
X59425Y-44300D01*
X59425Y-44300D02*
X59425Y-44900D01*
X59425Y-44900D02*
X59825Y-44900D01*
X62200Y-43925D02*
X62199Y-43934D01*
X62196Y-43944D01*
X62191Y-43952D01*
X62185Y-43960D01*
X62177Y-43966D01*
X62169Y-43971D01*
X62160Y-43973D01*
X62150Y-43974D01*
X62141Y-43974D01*
X62132Y-43971D01*
X62123Y-43966D01*
X62116Y-43960D01*
X62109Y-43953D01*
X62105Y-43944D01*
X62102Y-43935D01*
X62101Y-43925D01*
X62101Y-43916D01*
X62104Y-43907D01*
X62108Y-43898D01*
X62115Y-43891D01*
X62122Y-43884D01*
X62130Y-43880D01*
X62140Y-43877D01*
X62149Y-43876D01*
X62158Y-43876D01*
X62168Y-43879D01*
X62176Y-43883D01*
X62184Y-43889D01*
X62190Y-43897D01*
X62195Y-43905D01*
X62198Y-43914D01*
X62199Y-43924D01*
X62200Y-43925D01*
X62150Y-44375D02*
X62150Y-43975D01*
X62150Y-43975D02*
X61550Y-43975D01*
X61550Y-43975D02*
X61550Y-44375D01*
X61550Y-44775D02*
X61550Y-45175D01*
X61550Y-45175D02*
X62150Y-45175D01*
X62150Y-45175D02*
X62150Y-44775D01*
X62975Y-43925D02*
X62974Y-43934D01*
X62971Y-43944D01*
X62966Y-43952D01*
X62960Y-43960D01*
X62952Y-43966D01*
X62944Y-43971D01*
X62935Y-43973D01*
X62925Y-43974D01*
X62916Y-43974D01*
X62907Y-43971D01*
X62898Y-43966D01*
X62891Y-43960D01*
X62884Y-43953D01*
X62880Y-43944D01*
X62877Y-43935D01*
X62876Y-43925D01*
X62876Y-43916D01*
X62879Y-43907D01*
X62883Y-43898D01*
X62890Y-43891D01*
X62897Y-43884D01*
X62905Y-43880D01*
X62915Y-43877D01*
X62924Y-43876D01*
X62933Y-43876D01*
X62943Y-43879D01*
X62951Y-43883D01*
X62959Y-43889D01*
X62965Y-43897D01*
X62970Y-43905D01*
X62973Y-43914D01*
X62974Y-43924D01*
X62975Y-43925D01*
X62925Y-44375D02*
X62925Y-43975D01*
X62925Y-43975D02*
X62325Y-43975D01*
X62325Y-43975D02*
X62325Y-44375D01*
X62325Y-44775D02*
X62325Y-45175D01*
X62325Y-45175D02*
X62925Y-45175D01*
X62925Y-45175D02*
X62925Y-44775D01*
X63750Y-43925D02*
X63749Y-43934D01*
X63746Y-43944D01*
X63741Y-43952D01*
X63735Y-43960D01*
X63727Y-43966D01*
X63719Y-43971D01*
X63710Y-43973D01*
X63700Y-43974D01*
X63691Y-43974D01*
X63682Y-43971D01*
X63673Y-43966D01*
X63666Y-43960D01*
X63659Y-43953D01*
X63655Y-43944D01*
X63652Y-43935D01*
X63651Y-43925D01*
X63651Y-43916D01*
X63654Y-43907D01*
X63658Y-43898D01*
X63665Y-43891D01*
X63672Y-43884D01*
X63680Y-43880D01*
X63690Y-43877D01*
X63699Y-43876D01*
X63708Y-43876D01*
X63718Y-43879D01*
X63726Y-43883D01*
X63734Y-43889D01*
X63740Y-43897D01*
X63745Y-43905D01*
X63748Y-43914D01*
X63749Y-43924D01*
X63750Y-43925D01*
X63700Y-44375D02*
X63700Y-43975D01*
X63700Y-43975D02*
X63100Y-43975D01*
X63100Y-43975D02*
X63100Y-44375D01*
X63100Y-44775D02*
X63100Y-45175D01*
X63100Y-45175D02*
X63700Y-45175D01*
X63700Y-45175D02*
X63700Y-44775D01*
X64525Y-43925D02*
X64524Y-43934D01*
X64521Y-43944D01*
X64516Y-43952D01*
X64510Y-43960D01*
X64502Y-43966D01*
X64494Y-43971D01*
X64485Y-43973D01*
X64475Y-43974D01*
X64466Y-43974D01*
X64457Y-43971D01*
X64448Y-43966D01*
X64441Y-43960D01*
X64434Y-43953D01*
X64430Y-43944D01*
X64427Y-43935D01*
X64426Y-43925D01*
X64426Y-43916D01*
X64429Y-43907D01*
X64433Y-43898D01*
X64440Y-43891D01*
X64447Y-43884D01*
X64455Y-43880D01*
X64465Y-43877D01*
X64474Y-43876D01*
X64483Y-43876D01*
X64493Y-43879D01*
X64501Y-43883D01*
X64509Y-43889D01*
X64515Y-43897D01*
X64520Y-43905D01*
X64523Y-43914D01*
X64524Y-43924D01*
X64525Y-43925D01*
X64475Y-44375D02*
X64475Y-43975D01*
X64475Y-43975D02*
X63875Y-43975D01*
X63875Y-43975D02*
X63875Y-44375D01*
X63875Y-44775D02*
X63875Y-45175D01*
X63875Y-45175D02*
X64475Y-45175D01*
X64475Y-45175D02*
X64475Y-44775D01*
X65300Y-43925D02*
X65299Y-43934D01*
X65296Y-43944D01*
X65291Y-43952D01*
X65285Y-43960D01*
X65277Y-43966D01*
X65269Y-43971D01*
X65260Y-43973D01*
X65250Y-43974D01*
X65241Y-43974D01*
X65232Y-43971D01*
X65223Y-43966D01*
X65216Y-43960D01*
X65209Y-43953D01*
X65205Y-43944D01*
X65202Y-43935D01*
X65201Y-43925D01*
X65201Y-43916D01*
X65204Y-43907D01*
X65208Y-43898D01*
X65215Y-43891D01*
X65222Y-43884D01*
X65230Y-43880D01*
X65240Y-43877D01*
X65249Y-43876D01*
X65258Y-43876D01*
X65268Y-43879D01*
X65276Y-43883D01*
X65284Y-43889D01*
X65290Y-43897D01*
X65295Y-43905D01*
X65298Y-43914D01*
X65299Y-43924D01*
X65300Y-43925D01*
X65250Y-44375D02*
X65250Y-43975D01*
X65250Y-43975D02*
X64650Y-43975D01*
X64650Y-43975D02*
X64650Y-44375D01*
X64650Y-44775D02*
X64650Y-45175D01*
X64650Y-45175D02*
X65250Y-45175D01*
X65250Y-45175D02*
X65250Y-44775D01*
X66075Y-43925D02*
X66074Y-43934D01*
X66071Y-43944D01*
X66066Y-43952D01*
X66060Y-43960D01*
X66052Y-43966D01*
X66044Y-43971D01*
X66035Y-43973D01*
X66025Y-43974D01*
X66016Y-43974D01*
X66007Y-43971D01*
X65998Y-43966D01*
X65991Y-43960D01*
X65984Y-43953D01*
X65980Y-43944D01*
X65977Y-43935D01*
X65976Y-43925D01*
X65976Y-43916D01*
X65979Y-43907D01*
X65983Y-43898D01*
X65990Y-43891D01*
X65997Y-43884D01*
X66005Y-43880D01*
X66015Y-43877D01*
X66024Y-43876D01*
X66033Y-43876D01*
X66043Y-43879D01*
X66051Y-43883D01*
X66059Y-43889D01*
X66065Y-43897D01*
X66070Y-43905D01*
X66073Y-43914D01*
X66074Y-43924D01*
X66075Y-43925D01*
X66025Y-44375D02*
X66025Y-43975D01*
X66025Y-43975D02*
X65425Y-43975D01*
X65425Y-43975D02*
X65425Y-44375D01*
X65425Y-44775D02*
X65425Y-45175D01*
X65425Y-45175D02*
X66025Y-45175D01*
X66025Y-45175D02*
X66025Y-44775D01*
M02*
