G04 (created by PCBNEW-RS274X (2012-jan-04)-stable) date Пт. 17 авг. 2012 15:46:30*
G01*
G70*
G90*
%MOIN*%
G04 Gerber Fmt 3.4, Leading zero omitted, Abs format*
%FSLAX34Y34*%
G04 APERTURE LIST*
%ADD10C,0.006000*%
%ADD11R,0.098700X0.037700*%
%ADD12R,0.037700X0.098700*%
%ADD13C,0.075000*%
%ADD14R,0.075000X0.055000*%
%ADD15R,0.055000X0.075000*%
%ADD16R,0.075000X0.075000*%
%ADD17C,0.080000*%
%ADD18R,0.080000X0.080000*%
%ADD19R,0.067200X0.067200*%
%ADD20C,0.076000*%
%ADD21R,0.413700X0.086900*%
%ADD22R,0.413700X0.098700*%
%ADD23R,0.100000X0.080000*%
G04 APERTURE END LIST*
G54D10*
G54D11*
X60304Y-45493D03*
X60304Y-45178D03*
X60304Y-44863D03*
X60304Y-44548D03*
X60304Y-44233D03*
X60304Y-43918D03*
X60304Y-43603D03*
X60304Y-43288D03*
X64070Y-43290D03*
X64070Y-45500D03*
X64070Y-45180D03*
X64070Y-44860D03*
X64070Y-44550D03*
X64070Y-44230D03*
X64070Y-43920D03*
X64070Y-43600D03*
G54D12*
X61088Y-42500D03*
X61402Y-42500D03*
X61718Y-42500D03*
X62032Y-42500D03*
X62348Y-42500D03*
X62662Y-42500D03*
X62978Y-42500D03*
X63292Y-42500D03*
X61090Y-46280D03*
X61400Y-46280D03*
X61720Y-46280D03*
X62030Y-46280D03*
X62340Y-46280D03*
X62660Y-46280D03*
X62980Y-46280D03*
X63300Y-46280D03*
G54D13*
X70900Y-44600D03*
X70900Y-46600D03*
X67900Y-44600D03*
X67900Y-46600D03*
X67900Y-43200D03*
X67900Y-41200D03*
X70900Y-43200D03*
X70900Y-41200D03*
X61354Y-38232D03*
X62768Y-39646D03*
X59232Y-40354D03*
X60646Y-41768D03*
G54D14*
X65700Y-44375D03*
X65700Y-43625D03*
X66500Y-44375D03*
X66500Y-43625D03*
G54D10*
G36*
X68100Y-39844D02*
X67569Y-40375D01*
X67180Y-39986D01*
X67711Y-39455D01*
X68100Y-39844D01*
X68100Y-39844D01*
G37*
G36*
X67570Y-39314D02*
X67039Y-39845D01*
X66650Y-39456D01*
X67181Y-38925D01*
X67570Y-39314D01*
X67570Y-39314D01*
G37*
G36*
X67175Y-38794D02*
X66644Y-39325D01*
X66255Y-38936D01*
X66786Y-38405D01*
X67175Y-38794D01*
X67175Y-38794D01*
G37*
G36*
X66645Y-38264D02*
X66114Y-38795D01*
X65725Y-38406D01*
X66256Y-37875D01*
X66645Y-38264D01*
X66645Y-38264D01*
G37*
G54D15*
X58575Y-44800D03*
X57825Y-44800D03*
X58575Y-44000D03*
X57825Y-44000D03*
G54D14*
X57000Y-45575D03*
X57000Y-44825D03*
G54D10*
G36*
X59194Y-38275D02*
X59725Y-38806D01*
X59336Y-39195D01*
X58805Y-38664D01*
X59194Y-38275D01*
X59194Y-38275D01*
G37*
G36*
X58664Y-38805D02*
X59195Y-39336D01*
X58806Y-39725D01*
X58275Y-39194D01*
X58664Y-38805D01*
X58664Y-38805D01*
G37*
G54D15*
X59125Y-41250D03*
X58375Y-41250D03*
G54D10*
G36*
X55056Y-41975D02*
X54525Y-41444D01*
X54914Y-41055D01*
X55445Y-41586D01*
X55056Y-41975D01*
X55056Y-41975D01*
G37*
G36*
X55586Y-41445D02*
X55055Y-40914D01*
X55444Y-40525D01*
X55975Y-41056D01*
X55586Y-41445D01*
X55586Y-41445D01*
G37*
G36*
X58219Y-47625D02*
X58750Y-48156D01*
X58361Y-48545D01*
X57830Y-48014D01*
X58219Y-47625D01*
X58219Y-47625D01*
G37*
G36*
X57689Y-48155D02*
X58220Y-48686D01*
X57831Y-49075D01*
X57300Y-48544D01*
X57689Y-48155D01*
X57689Y-48155D01*
G37*
G36*
X59394Y-48775D02*
X59925Y-49306D01*
X59536Y-49695D01*
X59005Y-49164D01*
X59394Y-48775D01*
X59394Y-48775D01*
G37*
G36*
X58864Y-49305D02*
X59395Y-49836D01*
X59006Y-50225D01*
X58475Y-49694D01*
X58864Y-49305D01*
X58864Y-49305D01*
G37*
G54D15*
X69250Y-39550D03*
X68500Y-39550D03*
G54D10*
G36*
X65591Y-40561D02*
X65061Y-41091D01*
X64531Y-40561D01*
X65061Y-40031D01*
X65591Y-40561D01*
X65591Y-40561D01*
G37*
G54D13*
X64354Y-39854D03*
X63646Y-39146D03*
X62939Y-38439D03*
G54D16*
X65500Y-50500D03*
G54D13*
X66500Y-50500D03*
X67500Y-50500D03*
X68500Y-50500D03*
G54D10*
G36*
X58384Y-40104D02*
X57854Y-40634D01*
X57324Y-40104D01*
X57854Y-39574D01*
X58384Y-40104D01*
X58384Y-40104D01*
G37*
G54D13*
X57146Y-39396D03*
G54D16*
X68925Y-38425D03*
G54D13*
X69925Y-38425D03*
G54D10*
G36*
X57384Y-41104D02*
X56854Y-41634D01*
X56324Y-41104D01*
X56854Y-40574D01*
X57384Y-41104D01*
X57384Y-41104D01*
G37*
G54D13*
X56146Y-40396D03*
G54D17*
X57000Y-42300D03*
X57000Y-46300D03*
G54D18*
X73100Y-42600D03*
G54D17*
X72100Y-42600D03*
X73100Y-41600D03*
X72100Y-41600D03*
X73100Y-40600D03*
X72100Y-40600D03*
X73100Y-39600D03*
X72100Y-39600D03*
X73100Y-38600D03*
X72100Y-38600D03*
G54D18*
X73100Y-47600D03*
G54D17*
X72100Y-47600D03*
X73100Y-46600D03*
X72100Y-46600D03*
X73100Y-45600D03*
X72100Y-45600D03*
G54D19*
X70037Y-39550D03*
X70863Y-39550D03*
G54D20*
X60657Y-48557D03*
X59243Y-47143D03*
G54D10*
G36*
X51958Y-45307D02*
X51958Y-46293D01*
X47822Y-46293D01*
X47822Y-45307D01*
X51958Y-45307D01*
X51958Y-45307D01*
G37*
G36*
X51958Y-44366D02*
X51958Y-45234D01*
X47822Y-45234D01*
X47822Y-44366D01*
X51958Y-44366D01*
X51958Y-44366D01*
G37*
G54D21*
X49890Y-44000D03*
G54D22*
X49890Y-43000D03*
G54D16*
X64950Y-41950D03*
G54D13*
X65950Y-41950D03*
X66950Y-41950D03*
G54D10*
G36*
X67541Y-40561D02*
X67011Y-41091D01*
X66481Y-40561D01*
X67011Y-40031D01*
X67541Y-40561D01*
X67541Y-40561D01*
G37*
G54D13*
X66304Y-39854D03*
X65596Y-39146D03*
X64889Y-38439D03*
G54D10*
G36*
X54366Y-46396D02*
X54896Y-45866D01*
X55426Y-46396D01*
X54896Y-46926D01*
X54366Y-46396D01*
X54366Y-46396D01*
G37*
G54D13*
X55604Y-47104D03*
G54D23*
X54700Y-42750D03*
X54700Y-44050D03*
X55900Y-43450D03*
X55900Y-44750D03*
G54D15*
X66525Y-46700D03*
X67275Y-46700D03*
X66525Y-45900D03*
X67275Y-45900D03*
X67275Y-47500D03*
X66525Y-47500D03*
X67275Y-45100D03*
X66525Y-45100D03*
G54D16*
X70000Y-50500D03*
G54D13*
X71000Y-50500D03*
X72000Y-50500D03*
X73000Y-50500D03*
G54D16*
X60000Y-50500D03*
G54D13*
X61000Y-50500D03*
X62000Y-50500D03*
X63000Y-50500D03*
X64000Y-50500D03*
M02*
