G04 (created by PCBNEW-RS274X (2012-jan-04)-stable) date Пт. 17 авг. 2012 15:46:30*
G01*
G70*
G90*
%MOIN*%
G04 Gerber Fmt 3.4, Leading zero omitted, Abs format*
%FSLAX34Y34*%
G04 APERTURE LIST*
%ADD10C,0.006000*%
%ADD11C,0.075000*%
%ADD12R,0.100000X0.164000*%
%ADD13R,0.100000X0.060000*%
%ADD14R,0.055000X0.075000*%
%ADD15R,0.075000X0.075000*%
%ADD16C,0.080000*%
%ADD17R,0.080000X0.080000*%
%ADD18C,0.076000*%
%ADD19R,0.075000X0.055000*%
G04 APERTURE END LIST*
G54D10*
G54D11*
X70900Y-44600D03*
X70900Y-46600D03*
X67900Y-44600D03*
X67900Y-46600D03*
X67900Y-43200D03*
X67900Y-41200D03*
X70900Y-43200D03*
X70900Y-41200D03*
X61354Y-38232D03*
X62768Y-39646D03*
X59232Y-40354D03*
X60646Y-41768D03*
G54D12*
X55450Y-44250D03*
G54D13*
X58050Y-44250D03*
X58050Y-45150D03*
X58050Y-43350D03*
G54D10*
G36*
X61356Y-40975D02*
X60825Y-40444D01*
X61214Y-40055D01*
X61745Y-40586D01*
X61356Y-40975D01*
X61356Y-40975D01*
G37*
G36*
X61886Y-40445D02*
X61355Y-39914D01*
X61744Y-39525D01*
X62275Y-40056D01*
X61886Y-40445D01*
X61886Y-40445D01*
G37*
G36*
X60731Y-40375D02*
X60200Y-39844D01*
X60589Y-39455D01*
X61120Y-39986D01*
X60731Y-40375D01*
X60731Y-40375D01*
G37*
G36*
X61261Y-39845D02*
X60730Y-39314D01*
X61119Y-38925D01*
X61650Y-39456D01*
X61261Y-39845D01*
X61261Y-39845D01*
G37*
G54D14*
X61625Y-42900D03*
X62375Y-42900D03*
G54D10*
G36*
X65591Y-40561D02*
X65061Y-41091D01*
X64531Y-40561D01*
X65061Y-40031D01*
X65591Y-40561D01*
X65591Y-40561D01*
G37*
G54D11*
X64354Y-39854D03*
X63646Y-39146D03*
X62939Y-38439D03*
G54D15*
X65500Y-50500D03*
G54D11*
X66500Y-50500D03*
X67500Y-50500D03*
X68500Y-50500D03*
G54D10*
G36*
X58384Y-40104D02*
X57854Y-40634D01*
X57324Y-40104D01*
X57854Y-39574D01*
X58384Y-40104D01*
X58384Y-40104D01*
G37*
G54D11*
X57146Y-39396D03*
G54D15*
X68925Y-38425D03*
G54D11*
X69925Y-38425D03*
G54D10*
G36*
X57384Y-41104D02*
X56854Y-41634D01*
X56324Y-41104D01*
X56854Y-40574D01*
X57384Y-41104D01*
X57384Y-41104D01*
G37*
G54D11*
X56146Y-40396D03*
G54D16*
X57000Y-42300D03*
X57000Y-46300D03*
G54D17*
X73100Y-42600D03*
G54D16*
X72100Y-42600D03*
X73100Y-41600D03*
X72100Y-41600D03*
X73100Y-40600D03*
X72100Y-40600D03*
X73100Y-39600D03*
X72100Y-39600D03*
X73100Y-38600D03*
X72100Y-38600D03*
G54D17*
X73100Y-47600D03*
G54D16*
X72100Y-47600D03*
X73100Y-46600D03*
X72100Y-46600D03*
X73100Y-45600D03*
X72100Y-45600D03*
G54D18*
X60657Y-48557D03*
X59243Y-47143D03*
G54D19*
X59000Y-45375D03*
X59000Y-44625D03*
G54D14*
X60400Y-44600D03*
X59650Y-44600D03*
G54D15*
X64950Y-41950D03*
G54D11*
X65950Y-41950D03*
X66950Y-41950D03*
G54D10*
G36*
X67541Y-40561D02*
X67011Y-41091D01*
X66481Y-40561D01*
X67011Y-40031D01*
X67541Y-40561D01*
X67541Y-40561D01*
G37*
G54D11*
X66304Y-39854D03*
X65596Y-39146D03*
X64889Y-38439D03*
G54D10*
G36*
X54366Y-46396D02*
X54896Y-45866D01*
X55426Y-46396D01*
X54896Y-46926D01*
X54366Y-46396D01*
X54366Y-46396D01*
G37*
G54D11*
X55604Y-47104D03*
G54D19*
X61850Y-44200D03*
X61850Y-44950D03*
X62625Y-44200D03*
X62625Y-44950D03*
X63400Y-44200D03*
X63400Y-44950D03*
X64175Y-44200D03*
X64175Y-44950D03*
X64950Y-44200D03*
X64950Y-44950D03*
X65725Y-44200D03*
X65725Y-44950D03*
G54D15*
X70000Y-50500D03*
G54D11*
X71000Y-50500D03*
X72000Y-50500D03*
X73000Y-50500D03*
G54D15*
X60000Y-50500D03*
G54D11*
X61000Y-50500D03*
X62000Y-50500D03*
X63000Y-50500D03*
X64000Y-50500D03*
M02*
